<?xml version="1.0" encoding="utf-8"?>
<!-- Generator: Adobe Illustrator 23.0.1, SVG Export Plug-In . SVG Version: 6.00 Build 0)  -->
<svg version="1.1" id="Layer_1" xmlns="http://www.w3.org/2000/svg" xmlns:xlink="http://www.w3.org/1999/xlink" x="0px" y="0px"
	 viewBox="0 0 475.44 401.08" style="enable-background:new 0 0 475.44 401.08;" xml:space="preserve">
<g>
	<path d="M134.84,0.05c11.43-0.36,22.22,1.04,32.26,6.71c1.56,0.88,3.34,1.47,5.09,1.88c17.01,4.01,32.5,11.41,46.96,21.04
		c11.34,7.55,22.53,15.31,33.75,23.03c1.18,0.81,2.13,1.97,3.2,2.94c4.58,4.14,9.22,8.21,13.73,12.42c3.44,3.21,6.87,6.45,10.06,9.9
		c5.54,6,10.81,12.27,16.35,18.27c10.09,10.95,20.27,21.82,30.49,32.65c2.36,2.5,4.95,4.82,7.57,7.06
		c5.94,5.07,11.98,10.02,17.94,15.06c1.38,1.17,2.66,2.47,3.94,3.76c6.89,6.97,13.49,14.27,20.71,20.87
		c8.42,7.7,14.4,17.24,21.2,26.19c6.8,8.96,13.92,17.68,20.61,26.73c6.24,8.45,12.04,17.23,18.16,25.77
		c2.11,2.94,4.54,5.65,6.95,8.36c6.42,7.21,12.17,14.84,16.47,23.57c4.15,8.42,8.73,16.63,13.05,24.97
		c0.48,0.92,0.58,2.09,0.67,3.16c0.53,6.34,1.25,12.67,1.43,19.02c0.24,8.1-2.3,15.77-4.63,23.4c-1.26,4.14-2.49,8.36-4.43,12.19
		c-6.11,12.07-13.2,23.39-25.91,29.79c-4.56,2.3-9.16,2.82-14.24,1.75c-12.57-2.64-24.37-6.73-34.86-14.54
		c-8.88-6.61-18.41-12.32-27.47-18.7c-5.43-3.83-11.55-6.02-17.54-8.61c-10.52-4.55-21.28-8.39-32.57-10.48
		c-3.73-0.69-7.6-0.57-11.39-0.94c-17.56-1.69-35.12-2.42-52.74-0.59c-7.03,0.73-14.14,1.19-21.21,1.1
		c-28.81-0.37-56.65-5.37-82.9-17.83c-4.4-2.09-9.15-3.44-13.7-5.24c-4.22-1.66-8.55-3.15-12.53-5.27
		c-8.64-4.6-17.08-9.59-25.64-14.35c-7.13-3.96-14.37-7.71-21.44-11.77c-4.23-2.43-8.48-4.93-12.27-7.97
		c-11.06-8.88-21.78-18.2-29.81-30.07c-6.32-9.34-11.66-19.23-16.14-29.62c-7.8-18.09-11.37-37.23-12.82-56.6
		c-1.07-14.28,0.97-28.55,6.55-42.17c3.36-8.19,5.65-16.85,8.09-25.39c3.19-11.19,6.38-22.34,11.97-32.64
		c0.43-0.79,0.93-1.63,1.07-2.5c1.33-8.33,6.07-15.13,10.14-22.16c3.85-6.65,9.28-11.83,15.99-15.97
		c11.04-6.8,23.04-11.44,34.7-16.88c8.16-3.81,16.84-5.68,25.44-7.84C121.59,1.88,128.26,1.17,134.84,0.05z M135.36,8.84
		c-6.12-1.04-13.3,1.19-20.46,3.1c-6.64,1.77-13.37,3.49-19.69,6.1c-12.4,5.14-24.3,11.32-35.59,18.69
		c-5.02,3.28-9.17,7.26-11.98,12.36c-3.65,6.63-8.36,12.84-9.42,20.69c-0.14,1.04-0.79,2.02-1.3,2.98
		c-5.52,10.51-9.07,21.74-12.39,33.07c-2.45,8.35-4.89,16.74-8.07,24.83c-4.91,12.48-6.5,25.56-5.42,38.52
		c1.51,18.08,5.1,35.94,12.3,52.84c7.26,17.02,16.18,32.81,29.97,45.62c10.19,9.46,21,17.87,33.7,23.64
		c11.41,5.19,22.53,10.83,32.93,17.94c4.13,2.83,8.84,5.29,13.64,6.55c6.22,1.63,12.08,3.88,17.78,6.7
		c9.15,4.52,18.74,7.92,28.57,10.5c21.6,5.68,43.53,7.69,65.84,5.62c8.85-0.82,17.79-1.55,26.66-1.27
		c11.94,0.37,23.85,1.74,35.78,2.69c2.35,0.19,4.75,0.13,7.04,0.61c11.96,2.46,23.4,6.53,34.61,11.3
		c5.84,2.49,11.66,4.88,16.98,8.53c10.02,6.89,20.47,13.17,30.46,20.11c8.37,5.81,17.68,8.96,27.29,11.88
		c7.76,2.36,13.79,0.26,19.44-4.82c11.14-10,17.51-22.8,22.06-36.78c3.41-10.48,3.13-21.07,1.67-31.73
		c-0.41-3.02-1.27-6.02-2.29-8.9c-3.43-9.68-9.07-18.18-15.12-26.32c-8.65-11.63-17.81-22.88-26.65-34.37
		c-12.05-15.69-23.98-31.47-35.99-47.19c-4.94-6.47-8.67-13.85-15.03-19.24c-3.46-2.93-6.65-6.17-9.9-9.33
		c-7.16-6.95-14.2-14.02-21.44-20.88c-6.07-5.74-12.66-10.95-18.49-16.92c-12.94-13.25-25.82-26.58-38.2-40.35
		c-9.72-10.81-19.5-21.48-30.78-30.71c-2.37-1.94-4.13-4.67-6.6-6.44c-8.85-6.35-17.85-12.48-26.84-18.63
		c-15.71-10.75-32.55-19.05-51.12-23.63c-1.92-0.47-3.85-1.19-5.57-2.16C155.32,9.26,146.22,8.35,135.36,8.84z"/>
</g>
</svg>
