<?xml version="1.0" encoding="utf-8"?>
<!-- Generator: Adobe Illustrator 23.0.1, SVG Export Plug-In . SVG Version: 6.00 Build 0)  -->
<svg version="1.1" id="Layer_1" xmlns="http://www.w3.org/2000/svg" xmlns:xlink="http://www.w3.org/1999/xlink" x="0px" y="0px"
	 viewBox="0 0 361.29 559.28" style="enable-background:new 0 0 361.29 559.28;" xml:space="preserve">
<g>
	<path d="M248.72,249.81c0.97-0.41,1.76-0.74,2.67-1.12c-0.47-1.8-2.62-3.88,0.91-5.11c0.81-0.28,1.54-1.89,1.62-2.94
		c0.5-6.66,4.08-11.49,8.73-15.89c1.86-1.76,4.02-3.47,4.4-6.45c0.32-2.52,2.73-3.76,4.62-3.82c2.55-0.08,3.39-1.38,4.41-3.15
		c0.72-1.23,1.8-2.25,2.7-3.37c4.51-5.61,11.61-3.97,15.36-0.31c2.29,2.23,3.66,5.98,2.29,9.46c-1.45,3.66-1.32,7.88-4.15,11.09
		c-0.64,0.72-0.06,2.4-0.32,3.59c-0.81,3.74-1.74,7.46-2.75,11.68c-1.74,1.22-3.09,3-3.9,5.91c-0.81,2.93-3.94,5.23-6.09,7.77
		c-0.67,0.79-1.49,1.45-2.2,2.21c-2.34,2.5-4.99,3.64-8.59,3.16c-5.81-0.77-10.99-2.7-15.71-6.22
		C250.61,254.69,249.16,252.96,248.72,249.81z"/>
	<path d="M207.74,178.81c1.69-2.58,3.1-4.8,4.59-6.97c0.49-0.71,1.09-1.56,1.83-1.86c5.51-2.26,8.6-7.27,12.75-11.06
		c3.45-3.15,6.64-6.41,12.09-5.49c5.69,0.97,8.76,3.92,9.9,9.59c1.35,6.7,0.22,12.94-2.35,19.11c-0.64,1.55-0.7,3.34-1.02,5.02
		c-0.13,0.71-0.13,1.99-0.39,2.05c-4.4,0.96-2.78,6.69-6.23,8.01c-3.77,1.44-6.88,3.74-10.18,5.91c-1.72,1.13-4.46,0.96-6.73,0.91
		c-2.96-0.07-5.92-0.57-8.87-0.96c-8.9-1.18-11.07-10.44-7.52-16.06C207.47,184.06,208.57,181.47,207.74,178.81z"/>
	<path d="M154.56,167.89c0.85-1.69,2.28-3.33,2.44-5.08c0.61-6.66,5.55-10.58,9.76-14.34c5.75-5.14,11.63-10.42,18.9-13.64
		c4.07-1.81,8-3.95,11.98-5.95c3.8-1.91,7.74-1.33,11.55-0.31c0.87,0.23,1.61,2.09,1.86,3.31c1.44,7.15-1.81,12.67-6.98,16.93
		c-2.22,1.83-3.67,3.84-4.78,6.26c-1.02,2.21-4.41,2.67-4.15,5.87c0.05,0.59-1,1.32-1.61,1.91c-3.57,3.43-7.05,6.96-10.78,10.21
		c-3.07,2.68-6.31,5.24-9.75,7.4c-1.73,1.08-4.02,0.94-6.01-0.38c-2.29-1.52-4.4-2.98-7.38-3.69
		C156.49,175.62,154.3,172.23,154.56,167.89z"/>
	<path d="M57.1,326.15c1.28-2.27,2.11-3.67,2.87-5.11c0.15-0.29-0.01-1,0.1-1.03c4.16-1.08,3.99-5.54,6.26-8.14
		c2.42-2.78,3.87-6.4,5.77-9.64c1.21-2.05,2.28-4.22,3.76-6.06c0.79-0.97,2.7-2.17,3.46-1.83c4.5,2.02,9.99,2.56,12.72,7.47
		c0.64,1.16,0.82,2.67,0.9,4.04c0.37,7.13-1.87,13.76-4.24,20.33c-1.46,4.04-3.12,8.02-4.93,11.92c-0.59,1.28-0.77,2.73-2.49,3.76
		c-1.53,0.91-2.33,3.49-2.86,5.49c-0.61,2.31-1.15,3.43-3.47,1.57c-0.16-0.13-1.53,0.76-1.48,0.94c0.32,1.19,0.7,2.64-0.89,2.73
		c-1.63,0.09-3.87-0.13-4.86-1.16c-3.26-3.38-6.84-6.14-10.88-8.56c-1.36-0.81-1.89-3.66-2.04-5.63c-0.13-1.7,0.4-3.77,1.37-5.17
		C57.7,329.86,57.56,327.79,57.1,326.15z"/>
	<path d="M14.48,405.33c-2.95-1.13-7-2.18-10.48-4.21c-1.71-1-2.66-3.7-3.39-5.82c-0.55-1.59-0.26-3.48-0.25-5.24
		c0-1.02,0.57-2.2,0.22-3.02c-1.84-4.32,1.08-7.29,3.17-10.11c1.41-1.9,2.99-3.98,4.56-5.53c3.65-3.62,6.52-7.53,8.89-12.02
		c1.18-2.24,3.53-2.92,6.1-2.6c2.32,0.29,4.65,0.63,6.97,0.66c2.58,0.04,3.72,1.22,4.47,3.64c1.85,5.98,2.06,11.7,0.49,17.94
		c-1.68,6.67-5.13,12.21-8.47,17.94c-0.63,1.08-1.57,1.97-2.23,3.04C21.9,404.23,20.08,405.33,14.48,405.33z"/>
	<path d="M70.55,242.4c-8.54,0.02-12.7-3.55-13.91-10.88c-0.36-2.2-1.18-4.45-0.96-6.59c0.22-2.18,1.52-4.23,2.23-6.37
		c0.6-1.82,2.7-2.91,2.24-5.34c-0.16-0.87,0.77-2.3,1.61-2.93c4.08-3.06,6.55-7.41,9.66-11.27c2.74-3.41,5.02-7.97,10.85-7.22
		c4.53,0.59,7.41,3.34,10.03,6.63c0.31,0.39,0.49,1.06,0.4,1.55c-1.6,8.75-1.46,18.08-8.44,25.04c-0.66,0.66-0.97,1.87-1.06,2.85
		c-0.37,3.91-5.55,12.47-8.67,13.69C72.91,242.19,71.08,242.29,70.55,242.4z"/>
	<path d="M339.03,376.35c-0.82,1.89-1.58,3.42-2.15,5.02c-0.4,1.14-1.08,2.59-0.7,3.53c1.18,2.93-0.72,5.51-0.6,8.31
		c0.05,1.23-0.99,3.15-2.05,3.64c-2.83,1.31-3.49,3.25-2.97,6.02c0.06,0.32-0.3,0.71-0.27,1.04c0.29,2.5-3.74-0.32-3.08,2.51
		c0.59,2.5-1.27,2.52-2.77,2.71c-1.72,0.22-3.47,0.31-5.2,0.26c-2.11-0.06-4.25-0.64-6.32-0.44c-7.1,0.71-9.46-2.77-10.12-8.04
		c-0.7-5.54,0.89-10.53,3.11-15.44c2.34-5.18,4.86-10.21,8.51-14.68c2.84-3.48,5.82-6.58,9.95-8.43c2.32-1.03,4.26-0.06,5.87,1.47
		c2.21,2.09,4.46,4.22,6.26,6.65C337.71,372.09,338.17,374.27,339.03,376.35z"/>
	<path d="M143.82,233.96c0,1.67,0.45,4.45-0.14,7.01c-0.5,2.2-1.07,4.54-1.88,6.58c-2.09,5.27-4.77,10.35-7.71,15.21
		c-0.94,1.55-3.37,2.89-5.23,3.06c-6.7,0.61-12.8-1.42-18.21-5.46c-2.21-1.65-4.08-6.85-2.94-9.65c1.6-3.93,3.12-8.09,5.65-11.39
		c3.56-4.64,6.53-9.61,9.68-14.49c3.52-5.47,5.84-6.5,11.08-4.07c0.64,0.3,1.39,0.33,2.06,0.57
		C142.91,223.66,144.3,225.76,143.82,233.96z"/>
	<path d="M225.67,3.51c0-1.2,0-1.91,0-2.6c2.91-1.6,5.39-0.96,7.96,0.89c1.85,1.34,4.06,2.24,6.18,3.15c4.03,1.74,4.56,2.4,4.4,6.79
		c-0.12,3.19,0.14,6.53-0.72,9.53c-0.73,2.58-2.85,4.74-4.28,7.14c-4.03,6.77-10.81,10.46-16.86,14.92c-1.88,1.39-3.99,1-6.1-0.17
		c-1.85-1.02-3.95-1.64-5.99-2.27c-3.07-0.95-4.62-2.79-5.01-6.09c-0.94-7.88,1.45-15.15,5.94-21.15
		c3.19-4.26,8.36-7.05,12.71-10.41C224.19,2.99,225,3.39,225.67,3.51z"/>
	<path d="M179.11,417.59c-6.34-0.68-9.87-3.4-11.85-8.22c-0.2-0.5-0.31-1.14-0.69-1.45c-5.35-4.4-2.68-9.19-0.74-13.95
		c0.41-1,0.87-1.97,1.29-2.96c1.07-2.57,1.87-5.31,5.06-6.23c0.51-0.15,1.08-1.05,1.13-1.65c0.6-6.24,5.67-9.72,9.33-13.66
		c3.31-3.56,8.55-2.77,12.93-0.29c3.77,2.14,4.84,6.03,4.51,9.7c-0.34,3.76-1.98,7.47-3.42,11.05c-1.62,4-3.45,7.83-4.72,12.05
		c-1.48,4.94-4.98,9.39-8.12,13.66C182.8,417.03,180.12,417.2,179.11,417.59z"/>
	<path d="M177.73,96.67c-3.86-0.9-8.13-1.72-12.29-2.92c-2.46-0.71-3.81-2.76-3.75-5.37c0.04-1.97,0.22-3.99,0.73-5.88
		c2.08-7.57,5.66-14.3,11.77-19.42c0.93-0.78,2.25-1.52,3.4-1.52c1.94-0.01,2.75-1.33,4.03-2.27c2.25-1.65,4.78-2.94,7.27-4.24
		c0.56-0.29,1.56-0.24,2.12,0.07c3.44,1.89,7,3.63,10.14,5.94c2.55,1.87,1.9,5.06,1.14,7.56c-1.56,5.13-2.87,10.25-6.09,14.95
		c-3.71,5.41-9,8.5-13.84,12.32C181.38,96.66,179.58,96.39,177.73,96.67z"/>
	<path d="M279.54,477.51c-1.1-6.34,3.05-11.05,7.32-15.83c2.89-3.25,5.38-6.85,8.07-10.28c0.55-0.7,1.1-1.47,1.83-1.94
		c2.25-1.47,5.04-1.61,7.52-2.51c3.34-1.22,12.25,7.02,12.2,10.68c-0.09,7.12-1.49,13.89-5.94,19.76
		c-3.54,4.66-7.2,9.19-11.29,13.38c-2.13,2.18-4.44,2.9-7.3,1.86c-1.02-0.37-2.02-0.84-3.07-1.08
		C281.96,489.93,278.92,487.57,279.54,477.51z"/>
	<path d="M76.98,424.86c-4.91-4.53-1.99-10.68-3.48-16.02c-0.26-0.94,1.42-2.42,2.52-4.12c-0.61-0.89-1.55-2.62,1.14-3.81
		c0.47-0.21,0.95-0.6,1.19-1.04c3.34-6.24,9.56-9.86,13.8-15.29c1.18-1.52,2.71-2.72,4.62-2.18c3.45,0.99,6.89,2.15,10.14,3.67
		c0.95,0.44,1.67,2.31,1.73,3.56c0.51,10.69-1.65,20.63-8.46,29.27c-0.8,1.02-2.87,2.09-1.36,4.08c0.1,0.14,0.22,0.46,0.18,0.49
		c-2.76,1.92-5.31,4.49-8.37,5.51c-2.15,0.72-5.08-0.44-7.52-1.19C81,427.15,79.1,425.9,76.98,424.86z"/>
	<path d="M262.49,147.76c1.78-0.79,2.92-1.97,2.53-4.42c-1-6.29,1.21-10.51,6.62-13.6c0.92-0.52,2.08-1.04,2.53-1.89
		c2.17-4.08,6.57-4.73,10.05-6.76c0.85-0.5,2.19-0.71,3.13-0.44c3.76,1.08,7.55,2.18,11.1,3.77c1.15,0.51,2.17,2.51,2.29,3.91
		c0.47,5.29,0.51,10.53-3,15.18c-1.8,2.38-3.08,5.18-4.37,7.9c-2.01,4.23-4.9,7.24-9.65,8.31c-1.47,0.33-2.95,1.96-4.18,1.72
		c-3.54-0.7-7-1.9-10.37-3.22c-1.01-0.4-1.76-1.75-2.39-2.8C265.32,152.98,263.99,150.46,262.49,147.76z"/>
	<path d="M291.52,370.85c2.28,2.6,2.59,4.12,0.04,5.44c-1.86,0.97-3.25,2.94-5.16,3.68c-3.43,1.32-6.44-0.25-9.09-2.49
		c-1.08-0.92-2-2.15-3.23-2.75c-6.03-2.95-7.31-8.01-6.6-14.06c0.08-0.71,0.29-1.49,0.1-2.13c-1.77-6.01,1.8-10.07,5.3-13.99
		c2.12-2.37,4.8-4.23,7.15-6.4c2-1.85,4.23-1.66,6.51-0.86c2.7,0.94,5.34,2.05,8.04,3c4.3,1.53,5.1,2.93,4.7,7.66
		c-0.19,2.24,0.32,4.57-0.09,6.74c-0.44,2.36-1.74,4.54-2.38,6.88c-0.58,2.11-0.89,4.32-1.11,6.5
		C295.48,370.02,294.99,371.44,291.52,370.85z"/>
	<path d="M143.63,344.77c-3.28,0-6.56,0.06-9.84-0.02c-2.82-0.07-6.9-2.55-6.24-4.02c1.49-3.33-1.77-6.07-0.04-9.49
		c1.46-2.88,1.49-6.26,3.97-9.05c2.74-3.08,4.74-6.96,6.49-10.76c1.73-3.76,3.9-6.96,7.47-9.03c1.02-0.59,2.7-1.2,3.52-0.76
		c3.14,1.7,6.31,3.53,8.95,5.89c1.44,1.28,2.23,3.66,2.6,5.67c0.39,2.19,0.12,4.56-0.17,6.81c-0.35,2.7-0.89,5.39-1.59,8.03
		c-0.66,2.47-1.08,5.3-2.59,7.17c-2.73,3.38-6.14,6.23-9.41,9.13c-0.71,0.63-2.07,0.53-3.13,0.76
		C143.63,344.98,143.63,344.87,143.63,344.77z"/>
	<path d="M351.07,140.11c6.97,0.19,10.66,4.1,10.18,10.7c-0.25,3.43-1.47,6.41-3.18,9.54c-4.97,9.07-12.56,14.95-21.38,19.63
		c-4.62,2.45-13.09-1.17-14.58-6.26c-0.85-2.88-1.81-5.68,0.76-8.47c0.77-0.83-0.33-3.24,0.37-4.3c1.77-2.69,3.77-5.41,6.25-7.4
		c3.3-2.64,7.18-4.54,10.72-6.9c1.62-1.08,3.22-2.3,4.47-3.77C346.48,140.78,348.48,139.61,351.07,140.11z"/>
	<path d="M38.71,263.56c-0.07,9.14-4.01,16.73-9.95,23.11c-2.43,2.6-6.36,3.99-9.84,5.33c-1.31,0.51-3.33-0.52-4.92-1.12
		c-1.49-0.56-2.79-1.61-4.27-2.22c-4.33-1.79-6.45-6.5-3.98-10.28c1.12-1.7,1.68-2.78,1.07-4.78c-0.28-0.92,0.63-2.41,1.35-3.39
		c2.41-3.27,3.91-7.05,7.27-9.89c2.29-1.94,2.71-5.92,5.35-8.37c2.82-2.63,5.47-4.1,9.49-3.05c7.36,1.93,7.4,1.77,8.1,9.85
		C38.51,260.34,38.6,261.95,38.71,263.56z"/>
	<path d="M145.56,479.62c-3.22,2.9,1.85,7.17-1.13,10.88c-0.9,1.12-0.99,2.69-2.46,3.85c-1.56,1.24-2.11,3.67-3.4,5.34
		c-1.73,2.24-3.56,4.51-5.76,6.23c-1.05,0.83-3.87,1.15-4.5,0.45c-2.29-2.54-6.96-0.84-8.27-5.06c-0.36-1.17-2.41-1.71-3.39-2.8
		c-5.52-6.14-1.43-12,0.83-17.76c1.68-4.29,4.11-8.28,5.88-12.54c3.31-7.95,11.23-9.23,17.13-2.63
		C143.71,469.19,145.36,473.58,145.56,479.62z"/>
	<path d="M91.41,141.22c2.73-2.63,4.99-4.82,7.26-7c2.95-2.84,5.6-6.13,8.93-8.41c4.55-3.1,10.04-2.67,15.23-1.95
		c2.44,0.34,4.32,5.67,3.36,9.38c-0.82,3.16-2.33,6.14-3.51,9.21c-0.7,1.83-1.28,3.7-2.04,5.5c-0.63,1.49-1.16,3.17-2.22,4.29
		c-3.55,3.74-7.2,7.4-11.03,10.85c-3.05,2.75-4.28,2.69-7.61,0.49c-3.01-1.99-6.04-3.94-8.95-6.07c-2.4-1.76-3.06-7.88-0.49-10.84
		C92.15,144.61,91.48,142.9,91.41,141.22z"/>
	<path d="M219.08,252.47c-1.28,3.92-2.26,8.25-4.09,12.17c-2.11,4.51-4.85,8.75-7.55,12.95c-2.71,4.21-4.75,4.82-9.61,3.15
		c-3.62-1.24-7.21-2.61-10.72-4.13c-4.52-1.95-5.3-8.38-1.63-12.38c0.7-0.76,1.94-1.69,1.85-2.4c-0.44-3.25,1.89-5.08,3.74-6.55
		c4.23-3.36,7.5-7.15,8.95-12.42c0.28-1.03,0.77-2.05,1.4-2.91c0.62-0.86,1.44-1.66,2.34-2.22c2.03-1.25,11.79,1.69,12.54,3.94
		C217.42,245.08,218.11,248.62,219.08,252.47z"/>
	<path d="M267.46,411.41c-1.81,7.82-3.22,15.77-5.67,23.39c-0.7,2.16-1.86,4.32-2.49,6.71c-1.36,5.15-6.85,8.15-12.13,7.07
		c-1.42-0.29-2.88-0.41-4.28-0.76c-4.8-1.17-7.53-5.44-6.2-10.19c1.73-6.2,3.75-12.28,7.31-17.8c1.99-3.09,3.18-6.68,4.9-9.95
		c1.16-2.2,2.42-4.41,3.97-6.33c1.92-2.38,4.52-1.46,7.03-0.95c0.98,0.2,2.28-0.71,3.12-0.36c1.34,0.56,3.05,1.53,3.45,2.72
		c0.66,1.94,0.4,4.2,0.53,6.32C267.14,411.32,267.3,411.37,267.46,411.41z"/>
	<path d="M173.11,493.24c1.02-6.43,1.88-11.76,2.71-17.1c0.31-1.96,0.71-3.91,0.79-5.88c0.17-4.35,2.6-7.79,4.63-11.31
		c0.79-1.37,2.85-2.78,4.35-2.8c3.35-0.05,6.82,0.4,10.05,1.33c2.67,0.76,3.59,3.95,2.52,5.85c-3.4,6.11-2.14,12.57-1.34,18.62
		c0.94,7.13-1.78,12.5-5.23,17.99c-0.09,0.15-0.28,0.23-0.38,0.38c-4.73,6.91-10.69,6.99-15.24-0.07
		C174.48,497.93,173.82,495.05,173.11,493.24z"/>
	<path d="M236.87,317.64c-2.46,2.8,0.88,7-1.15,10.67c-1.86,3.35-3.27,6.94-5.24,10.22c-3.02,5.04-8.54,6.26-13.56,3.35
		c-1.68-0.97-3.3-1.53-5.48-1.6c-6.34-0.2-10.92-7.84-7.1-12.38c2.3-2.73,2.75-5.19,3.63-8.17c0.84-2.83,3.54-5.06,5.12-7.73
		c2.83-4.78,7.97-6.7,13.28-4.76c1.14,0.42,2.37,0.73,3.58,0.81c5.32,0.36,5.3,0.32,6.28,5.85c0.15,0.85,0.61,1.65,0.9,2.48
		C237.19,316.52,237.07,316.73,236.87,317.64z"/>
	<path d="M312.91,69.32c-1.78-1.66-2.29-3.27,0.21-4.57c4.82-2.53,8.18-6.8,12.25-10.23c1.92-1.61,3.96-3.13,6.13-4.37
		c3.75-2.13,7.45-0.94,10.58,1.29c2.8,2,2.45,5.31,1.88,8.33c-0.91,4.87-2.15,9.75-6.04,13.1c-2.19,1.89-1.07,4.9-3.4,6.81
		c-1.77,1.45-2.36,4.31-3.62,6.45c-2.28,3.86-4.75,4.81-8.92,3.54c-1.2-0.37-2.35-0.91-3.55-1.32c-6.79-2.29-7.69-3.63-7.7-10.6
		c0-2.45-0.49-4.9-0.79-7.65C310.81,69.87,311.75,69.63,312.91,69.32z"/>
	<path d="M316.29,309.06c-1.93,0-3.86-0.01-5.79,0c-2.8,0.02-5.82-0.29-7.15-2.87c-1.02-1.97-1.22-4.67-0.94-6.94
		c1.13-9.13,5.05-16.64,12.65-22.38c4.06-3.07,7.56-6.6,13.02-6.92c5.67-0.33,8.28,2,7.1,7.66c-1.01,4.84-3.05,9.49-4.86,14.14
		c-1.41,3.62-3.24,7.08-4.72,10.68C324.15,305.91,319.67,309.4,316.29,309.06z"/>
	<path d="M340.32,241.9c-5.44-1.14-10.1-3.47-13.05-8.32c-1.23-2.03-1.33-4.34-0.11-6.61c0.49-0.91,1.04-2.18,0.76-3.02
		c-1.49-4.58,1.39-6.76,4.41-9.18c3.13-2.51,6.22-5.17,8.86-8.17c4.22-4.79,7.57-5.31,12.26-1.27c6.21,5.35,6.36,10.79,3.15,18.75
		c-1.93,4.79-5.06,8.39-7.76,12.43C346.91,239.38,343.73,240.84,340.32,241.9z"/>
	<path d="M216.92,506.45c0.55-9.23,5.52-16.41,10.78-23.47c0.11-0.14,0.28-0.23,0.4-0.36c2.01-2.24,3.81-5.51,7.24-4.73
		c4.34,0.98,7.57,4.05,9.68,8.01c0.45,0.84,0.37,2.13,0.16,3.14c-0.73,3.46-1.69,6.88-2.42,10.34c-0.29,1.38-0.14,2.85-0.32,4.26
		c-0.46,3.63-0.82,7.29-4.27,9.67c-1,0.69-1.86,1.78-2.41,2.87c-1.95,3.91-5.59,4.2-9.03,3.75c-7.52-0.99-10.19-4.62-9.82-12.38
		C216.93,507.17,216.92,506.81,216.92,506.45z"/>
	<path d="M264.28,74.65c-0.78,3.71-0.25,8.68-3.17,12.91c-2.35,3.41-4.23,7.18-6.85,10.35c-4.59,5.57-18.04,3.1-20.05-3.75
		c-0.9-3.06-0.87-6.66-0.25-9.82c0.54-2.76,2.62-4.89,5.24-6.73c4.18-2.92,8.75-5.36,12.02-9.71c2.76-3.68,7.11-3.59,11.2-1.35
		C265.69,68.35,264.57,71.07,264.28,74.65z"/>
	<path d="M189.2,533.71c-0.17,7.65-0.96,13.95-5.99,18.79c-1.87,1.81-2.54,4.57-5.21,5.9c-2.38,1.18-4.28,1.21-6.52-0.16
		c-1.8-1.09-3.8-1.95-5.81-2.56c-5.41-1.64-6.65-3.7-5.13-9.09c0.24-0.86,0.48-1.77,0.93-2.53c1.62-2.73,3.68-5.01,4.52-8.41
		c0.7-2.87,3.71-5.15,5.64-7.74c2.28-3.04,4.89-5.68,9.05-4.43c4.09,1.23,7.61,3.32,8.01,8.32
		C188.79,532.86,189.25,533.89,189.2,533.71z"/>
	<path d="M73.54,458.45c2.23,6.64-1.75,12.63-4.28,18.81c-1.33,3.24-3.64,6.14-5.82,8.95c-0.78,1-2.42,1.6-3.77,1.84
		c-5.92,1.03-11.71-3.98-11.23-9.95c0.35-4.41,0.64-8.78,3.4-12.81c2.19-3.19,3.01-7.3,4.59-10.93c1.35-3.1,5.21-5.06,8.65-4.62
		c0.54,0.07,1.07,0.16,1.61,0.22C72.46,450.57,73.6,451.88,73.54,458.45z"/>
	<path d="M116.96,70.29c-0.92,4.14-1.69,9.13-4.58,14.03c-2.42,4.1-4.75,7.63-8.77,10.03c-3.07,1.83-9.77,1.8-11.72-0.6
		c-2.41-2.96-3.83-6.56-2.26-10.49c2.32-5.8,4.62-11.6,9.15-16.21c1.5-1.52,2.45-3.58,3.82-5.25c0.76-0.92,1.77-1.97,2.85-2.24
		C110.34,58.31,117.16,64.12,116.96,70.29z"/>
</g>
</svg>
