<?xml version="1.0" encoding="utf-8"?>
<!-- Generator: Adobe Illustrator 23.0.1, SVG Export Plug-In . SVG Version: 6.00 Build 0)  -->
<svg version="1.1" id="Layer_1" xmlns="http://www.w3.org/2000/svg" xmlns:xlink="http://www.w3.org/1999/xlink" x="0px" y="0px"
	 viewBox="0 0 535.31 550.41" style="enable-background:new 0 0 535.31 550.41;" xml:space="preserve">
<g>
	<path d="M527.93,189.07c-0.97,5.86,1.32,10.05,2.54,14.48c0.69,2.52,1.22,5.08,1.78,7.63c0.25,1.13,0.26,2.32,0.59,3.41
		c3.04,10.08,2.97,20.32,1.44,30.59c-1.09,7.37-2.46,14.7-3.79,22.03c-0.58,3.2-1.14,6.43-2.11,9.51
		c-1.85,5.85-4.89,10.98-8.89,15.77c-3.87,4.64-7.25,9.85-9.95,15.26c-5.01,10.04-11.59,18.98-18.05,28.04
		c-0.79,1.11-1.66,2.19-2.3,3.38c-4.93,9.18-11.89,16.74-19.03,24.17c-2.87,2.99-6.23,5.2-10.08,6.85
		c-3.65,1.57-7.24,3.43-10.52,5.65c-8.42,5.71-17.26,10.87-24.62,18.03c-2.36,2.3-5.17,3.91-8.42,4.73
		c-3.21,0.82-6.04,2.44-8.54,4.58c-3.48,2.98-7.51,4.87-11.67,6.72c-6.99,3.11-13.79,6.68-20.64,10.11
		c-1.02,0.51-1.99,1.23-2.79,2.03c-3.2,3.18-6.98,5.33-11.19,6.86c-1.17,0.43-2.24,1.14-3.36,1.71c-3.64,1.86-7.32,3.64-10.9,5.6
		c-2.38,1.3-4.8,2.64-6.86,4.37c-2.84,2.39-5.78,4.43-9.27,5.81c-5.46,2.17-10.7,4.78-15.77,7.82c-4.85,2.89-10.12,5.06-15.18,7.6
		c-2.34,1.17-4.75,2.27-6.92,3.72c-4.22,2.83-8.67,5.1-13.45,6.81c-1.65,0.59-3.13,1.65-4.66,2.55c-2.97,1.76-5.78,3.85-8.9,5.28
		c-4.51,2.08-8.79,4.47-12.82,7.35c-1.62,1.16-3.27,2.38-5.08,3.13c-3.76,1.56-6.69,4.22-9.95,6.51
		c-6.42,4.53-12.25,9.89-19.33,13.51c-3.16,1.62-6.04,3.8-9.04,5.74c-5.38,3.48-10.75,6.98-16.15,10.42
		c-1.32,0.84-2.76,1.5-4.17,2.21c-3.93,1.98-7.96,3.79-11.79,5.95c-3.82,2.16-7.76,3.1-12.09,2.5c-1.35-0.19-2.72-0.44-4.07-0.38
		c-1.64,0.07-3.36,0.16-4.88,0.71c-3.98,1.44-7.49,3.77-10.8,6.39c-1.24,0.98-2.44,2.02-3.79,2.81c-2.69,1.59-5.51,2.05-8.36,0.35
		c-1.66-0.99-3.43-1.02-5.18-0.52c-2.32,0.66-4.65,1.35-6.85,2.32c-4.04,1.78-7.96,1.59-11.88-0.21c-1.05-0.48-2.1-0.99-3.06-1.63
		c-2.8-1.88-5.84-2.84-9.23-2.55c-2.57,0.22-4.31-1.01-5.1-3.33c-1.02-3-3.19-4.85-5.72-6.45c-1.78-1.12-3.52-2.29-5.29-3.42
		c-2.44-1.56-5.11-2.45-8.01-2.56c-15.7-0.55-25.42-9.73-32.28-22.7c-2.04-3.86-3.33-8.17-4.57-12.39
		c-1.94-6.61-4.9-12.7-8.42-18.59c-2.42-4.05-4.5-8.31-6.73-12.48c-2.95-5.53-3.92-11.73-5.85-17.6c-0.18-0.56-0.17-1.28-0.01-1.86
		c1.47-5.03,0.32-9.87-1.57-14.42c-3.84-9.24-6.4-18.83-9.07-28.45c-1.4-5.04-2.13-9.97-2.44-15.12c-0.18-2.99-1.52-5.89-1.91-8.89
		c-0.99-7.62-1.48-15.32,0.05-22.9c0.76-3.76,2.48-7.32,3.86-10.94c1.53-4.01,3.1-8.01,4.77-11.96c1.06-2.49,2.14-5.01,3.57-7.3
		c1.71-2.76,3.68-5.39,5.75-7.89c4.94-5.97,8-13.02,11.63-19.75c0.99-1.83,2.21-3.54,3.42-5.24c2.37-3.34,5.04-6.49,7.16-9.97
		c5.98-9.81,13.14-18.71,20.41-27.55c2.4-2.92,4.66-5.95,6.96-8.95c2.88-3.74,5.71-7.52,8.61-11.25c2.12-2.74,4.36-5.39,6.44-8.16
		c0.94-1.25,1.87-2.61,2.37-4.06c1.73-5.05,4.89-9.27,7.65-13.73c0.65-1.05,1.53-2.02,2.47-2.83c6.71-5.76,12.85-12.08,18.9-18.51
		c4.68-4.96,9.73-9.57,14.56-14.39c2.83-2.82,5.77-5.56,8.3-8.63c6.42-7.78,14.44-13.74,22.12-20.11c0.24-0.2,0.54-0.34,0.76-0.56
		c8.13-8.44,17.93-15.23,24.52-25.22c5.01-7.6,11.86-13.58,18.53-19.66c1.94-1.77,3.99-3.42,5.87-5.24c4-3.9,8.26-7.44,13-10.44
		c2.02-1.28,3.83-2.93,5.55-4.6c2.36-2.29,4.87-4.29,7.87-5.69c1.52-0.71,2.99-1.55,4.39-2.47c5.8-3.79,11.52-7.7,17.36-11.43
		c3.27-2.09,6.78-3.79,10.08-5.85c3.11-1.94,6.06-4.15,9.11-6.19c2.26-1.51,4.48-3.14,6.9-4.37c5.62-2.87,11.16-5.86,16.2-9.7
		c0.33-0.25,0.67-0.51,1.04-0.71c11.33-5.92,21.93-13.27,34.25-17.25c3.18-1.03,6.22-2.55,9.21-4.07c7.2-3.64,14.9-5.77,22.73-7.27
		c5.2-1,10.52-2.1,15.93-1.12c0.71,0.13,1.49,0.16,2.2,0.01c6.43-1.37,12.77,0.08,19.12,0.68c1.49,0.14,2.98,0.96,4.32,1.72
		c1.55,0.87,2.89,2.12,4.42,3.02c1.98,1.17,3.98,2.38,6.12,3.18c4.51,1.69,9.11,3.15,13.7,4.65c4.29,1.4,7.67,3.79,9.52,8.09
		c0.53,1.23,1.31,2.44,2.25,3.4c2.76,2.83,4.83,6.09,6.41,9.67c1.29,2.91,3.23,5.11,6.16,6.45c4.62,2.1,7.84,5.48,9.57,10.33
		c0.7,1.96,1.77,3.81,2.83,5.62c1.63,2.8,2.53,5.74,2.4,9c-0.05,1.26,0.03,2.52,0.13,3.78c0.2,2.52,1.02,4.65,3.46,5.96
		c2.24,1.2,3.59,3.24,4.19,5.68c1.26,5.09,4.34,9.3,6.64,13.88c0.45,0.9,1.24,1.75,2.08,2.31c2.9,1.95,4.83,4.64,6.31,7.71
		c1.47,3.05,3.33,5.73,5.92,8.04c1.56,1.39,2.83,3.51,3.38,5.54c1.91,7.06,4.95,13.57,8.55,19.88c0.86,1.51,1.28,3.34,1.6,5.07
		c0.7,3.74,1.71,7.33,3.34,10.79c1.07,2.26,1.76,4.71,2.45,7.13c0.92,3.25,1.9,6.42,3.84,9.26c0.86,1.27,1.49,2.83,1.76,4.33
		C526.74,180.49,527.37,185.27,527.93,189.07z M97.31,540.38c4.66-0.38,8.74,1.11,12.53,3.57c0.61,0.4,1.31,0.67,1.97,0.98
		c2.71,1.28,5.4,1.33,8.24,0.24c2.64-1.01,5.34-2,8.1-2.49c2.1-0.37,4.54-0.48,6.46,0.27c3.14,1.22,5.32,0.32,7.8-1.48
		c3.39-2.45,6.98-4.65,10.6-6.75c3.34-1.94,6.94-2.91,10.89-2.01c1.21,0.28,2.51,0.16,3.77,0.25c3.04,0.22,5.77-0.6,8.38-2.19
		c2.5-1.53,5.13-2.86,7.73-4.21c2.42-1.26,5.01-2.23,7.32-3.66c12.67-7.83,25.58-15.29,37.54-24.22c0.59-0.44,1.23-0.81,1.82-1.25
		c2.68-2.02,5.31-4.11,8.04-6.06c1.87-1.33,3.86-2.51,5.83-3.69c2.25-1.34,4.65-2.44,6.8-3.92c4.34-2.99,8.88-5.54,13.73-7.64
		c2.86-1.24,5.45-3.1,8.18-4.65c1.73-0.98,3.4-2.15,5.25-2.78c4.72-1.6,9.05-3.86,13.22-6.57c2.28-1.48,4.7-2.8,7.21-3.82
		c6.05-2.46,11.79-5.48,17.4-8.82c2.51-1.49,5.16-2.92,7.93-3.76c4.94-1.51,9.23-4.01,12.98-7.45c2.98-2.74,6.31-4.82,10.01-6.45
		c2.39-1.06,4.63-2.45,6.93-3.71c2.48-1.36,4.99-2.67,7.41-4.14c2.41-1.46,4.74-3.05,7.07-4.64c1.82-1.24,3.45-2.84,5.4-3.78
		c7.38-3.54,14.89-6.8,22.28-10.31c2.73-1.29,5.45-2.75,7.85-4.55c3.48-2.6,7.12-4.77,11.12-6.47c2.28-0.97,4.64-2.21,6.37-3.93
		c5.72-5.67,12.44-10,18.91-14.66c5.56-4,11.48-7.36,17.79-10.06c1.81-0.78,3.67-1.71,5.13-3c7.32-6.42,13.07-14.2,18.63-22.1
		c4.35-6.18,8.41-12.55,12.55-18.87c2.47-3.77,4.9-7.56,7.25-11.4c1.04-1.7,1.76-3.58,2.74-5.32c3.2-5.66,5.84-11.72,10.43-16.46
		c2.72-2.8,4.44-6.1,5.87-9.6c1.96-4.8,2.86-9.81,3.31-15c0.56-6.47,1.81-12.87,2.62-19.32c1.21-9.55,1.34-19.05-1.49-28.4
		c-0.36-1.19-0.37-2.49-0.63-3.72c-0.45-2.15-0.76-4.35-1.48-6.41c-1.99-5.69-3.53-11.38-3.16-17.53c0.21-3.43-0.24-6.93-0.64-10.37
		c-0.16-1.4-0.9-2.75-1.5-4.06c-0.78-1.71-1.9-3.3-2.51-5.07c-1.87-5.46-3.61-10.96-5.32-16.47c-0.5-1.6-0.88-3.26-1.05-4.92
		c-0.36-3.64-1.51-7.03-3.42-10.06c-2.74-4.34-4.41-9.03-5.66-13.95c-0.31-1.22-0.74-2.42-1.27-3.56c-0.39-0.84-0.85-1.78-1.56-2.32
		c-3.41-2.57-5.28-6.17-7.15-9.84c-0.84-1.65-1.87-3.44-3.3-4.51c-2.9-2.17-4.85-4.87-6.24-8.13c-0.45-1.05-1.08-2.05-1.74-2.99
		c-1.79-2.52-3.08-5.28-3.69-8.29c-0.37-1.78-1.14-3.09-2.75-3.97c-3.03-1.65-4.83-4.45-4.81-7.68c0.04-6.9-2.63-12.76-5.63-18.7
		c-1.65-3.26-3.62-5.87-6.92-7.38c-4.04-1.85-6.62-4.98-8.53-8.9c-1.14-2.34-2.63-4.53-4.07-6.71c-1.61-2.44-3.47-4.73-4.98-7.23
		c-1.02-1.7-2.2-3.07-4.06-3.75c-4.54-1.63-9.05-3.36-13.65-4.79c-3.35-1.04-6.65-2.22-9.29-4.5c-3.52-3.03-7.47-4.49-12.04-4.62
		c-3.14-0.09-6.27-0.4-9.41-0.46c-2.92-0.05-5.85,0.12-8.78,0.18c-0.73,0.01-1.47-0.13-2.19-0.06c-10.12,0.95-19.81,3.51-29.04,7.8
		c-3.81,1.77-7.55,3.75-11.52,5.08c-12.25,4.11-22.87,11.45-34.36,17.05c-0.19,0.09-0.34,0.24-0.53,0.34
		c-5.57,3.16-11.14,6.31-16.7,9.46c-1.55,0.88-3.27,1.56-4.61,2.69c-5.2,4.34-11.02,7.67-16.96,10.85
		c-1.57,0.84-3.05,1.86-4.54,2.84c-7.63,5.01-15,10.42-23.09,14.71c-1.1,0.58-2.24,1.28-3.06,2.19c-3.51,3.85-7.72,6.77-12.06,9.55
		c-1.32,0.85-2.53,1.88-3.72,2.91c-4.53,3.92-9.21,7.67-13.49,11.85c-5.84,5.71-12.03,11.12-16.59,18.06
		c-2.06,3.14-4.46,6.14-7.1,8.82c-4.71,4.78-9.73,9.26-14.62,13.86c-0.46,0.43-0.94,0.84-1.43,1.23
		c-4.48,3.65-9.05,7.19-13.42,10.97c-3.09,2.67-5.94,5.62-8.81,8.52c-5.76,5.83-11.41,11.76-17.2,17.56
		c-2.67,2.67-5.63,5.04-8.33,7.68c-4.87,4.76-9.39,9.92-14.54,14.36c-3.93,3.39-6.79,7.38-9.27,11.79
		c-3.18,5.67-5.97,11.58-10.42,16.46c-4.53,4.98-8.46,10.41-12.47,15.82c-5.69,7.66-12.07,14.8-18.03,22.27
		c-2.67,3.35-5.29,6.81-7.45,10.5c-2.55,4.34-4.74,8.88-8.1,12.72c-0.88,1.01-1.58,2.23-2.16,3.45c-3.44,7.21-7.24,14.17-12,20.64
		c-3.88,5.29-8.26,10.28-10.04,16.95c-1.1,4.11-3.28,7.93-4.86,11.93c-3.88,9.78-3.64,19.95-2.46,30.13
		c0.44,3.84,1.51,7.59,1.22,11.54c-0.11,1.52,0.33,3.12,0.73,4.63c1,3.74,2.16,7.45,3.18,11.18c1.88,6.87,3.34,13.84,6.02,20.51
		c2.46,6.13,4.22,12.55,2.62,19.34c-0.13,0.57,0,1.28,0.21,1.85c1.36,3.74,2.48,7.62,4.25,11.16c2.76,5.54,5.97,10.85,9.01,16.25
		c1.7,3.02,3.76,5.87,5.12,9.03c2.31,5.39,4.23,10.95,6.25,16.47c1.93,5.27,4.34,10.26,8.18,14.44c5.6,6.1,11.84,11.01,20.62,11.5
		c2.28,0.13,4.76,0.39,6.74,1.39C85.96,529.24,93.23,532.53,97.31,540.38z"/>
</g>
</svg>
