<?xml version="1.0" encoding="utf-8"?>
<!-- Generator: Adobe Illustrator 23.0.1, SVG Export Plug-In . SVG Version: 6.00 Build 0)  -->
<svg version="1.1" id="Layer_1" xmlns="http://www.w3.org/2000/svg" xmlns:xlink="http://www.w3.org/1999/xlink" x="0px" y="0px"
	 viewBox="0 0 429.02 507.43" style="enable-background:new 0 0 429.02 507.43;" xml:space="preserve">
<style type="text/css">
	.st0{fill:#F3C3ED;}
</style>
<g>
	<path class="st0" d="M164.1,4.42c6.2,0.36,12.2-0.74,18.29-1.85c4.3-0.78,8.79-1.43,13.39-0.58c5.2,0.95,10.44-0.71,15.62-1.35
		c6.73-0.83,13.24-1.24,19.8,1.21c7.12,2.66,14.69,4.22,21.56,7.37c9.16,4.19,18.79,7.65,26.71,14.24c3.12,2.6,5.33,5.93,7.69,9.13
		c3.02,4.1,6.04,8.18,9.89,11.54c4.55,3.96,7.9,8.98,11.99,13.35c3.28,3.5,4.38,8.37,5.36,12.95c1.71,8,4.21,15.63,7.43,23.17
		c3.55,8.3,5.78,17.16,9.09,25.58c3.86,9.8,5.54,20.22,8.95,30.11c3.9,11.3,8.32,22.42,12.7,33.55
		c5.31,13.49,11.28,26.74,16.09,40.41c4.49,12.76,7.97,25.92,9.99,39.32c0.78,5.16,0.98,10.44,2.48,15.47
		c1.24,4.14,2.3,8.36,4.34,12.23c6.94,13.18,12.29,27.09,18,40.8c3.4,8.16,5.59,16.82,8.26,25.28c1.91,6.06,3.84,12.1,6.91,17.72
		c2.7,4.94,5.2,10,6.64,15.48c0.95,3.64,2.36,7.23,0.79,11.15c-0.5,1.26-0.35,2.92-0.1,4.32c1.58,8.72,2.29,17.6,2.79,26.37
		c0.46,8.09,0.77,16.69-3.33,24.39c-0.62,1.17-0.59,2.44-0.73,3.7c-0.4,3.62-1,7.27-3.13,10.29c-2.15,3.05-3.32,6.3-3.89,9.97
		c-1.42,9.14-7.29,14.99-15.55,17.86c-6.81,2.36-13.46,5.3-20.58,6.84c-4.98,1.07-9.9,2-15.02,1.82c-4.16-0.15-8.3-0.28-12.44,0.84
		c-2.02,0.55-4.32,0.37-6.48-0.23c-1.21-0.34-2.52-0.78-3.72-0.62c-9.72,1.32-18.06-2.99-26.58-6.43c-3.02-1.22-5.99-2.56-9.1-3.59
		c-1.36-0.45-2.79-1.04-3.85-1.95c-7.36-6.39-16.39-9.85-24.87-14.26c-3.84-2-6.85-4.88-9.47-8.07c-4.8-5.85-11.07-9.36-17.84-12.07
		c-3.08-1.23-5.93-2.73-8.59-4.6c-2.55-1.8-5.3-3.25-8.17-4.31c-3.09-1.13-6.21-2.31-8.85-4.15c-5.55-3.86-11.82-6.29-17.65-9.56
		c-10.44-5.86-19.06-13.69-26.09-23.32c-5.55-7.61-11.1-15.22-15.67-23.49c-0.51-0.93-1.25-1.84-2.1-2.46
		c-6.19-4.55-11.34-10.11-16.11-16.1c-2.9-3.64-6.89-6.28-11.28-7.27c-7.51-1.68-12.06-7.23-17.01-12.08
		c-3.44-3.37-6.87-6.94-9.67-11.01c-1.74-2.52-4.35-4.23-7.2-5.66c-17.47-8.73-32.05-21.01-44.42-36.08
		c-2.75-3.35-5.58-6.66-8.43-9.95c-3.74-4.32-6.06-9.49-8.7-14.41c-7.39-13.74-15.19-27.29-21.09-41.79
		c-0.34-0.84-1.02-1.68-0.99-2.51c0.16-6.16-3.07-11.12-5.67-16.27c-2.8-5.52-5.15-11.19-6.95-17.12c-1.15-3.8-2.58-7.45-4.69-10.95
		c-3.23-5.35-3.27-11.64-2.29-17.5c1.19-7.12,1.88-14.32,3.4-21.39c0.96-4.45,2.35-8.8,4.32-12.85
		c5.31-10.93,10.46-21.94,14.77-33.31c2.39-6.31,7.27-10.76,11.08-16.01c6.6-9.09,12.92-18.39,21.38-25.98
		c1.95-1.75,3.08-4.44,4.54-6.73c2.17-3.41,4.58-6.43,8.73-7.7c2.41-0.74,4.33-2.6,6.49-3.86c7.2-4.21,13.44-9.75,20.39-14.24
		c4.85-3.13,10.66-4.49,15.97-6.84c11.08-4.9,22.42-9.21,33.7-13.65C151.37,4.37,157.7,3.96,164.1,4.42z"/>
</g>
</svg>
