<?xml version="1.0" encoding="utf-8"?>
<!-- Generator: Adobe Illustrator 23.0.1, SVG Export Plug-In . SVG Version: 6.00 Build 0)  -->
<svg version="1.1" id="Layer_1" xmlns="http://www.w3.org/2000/svg" xmlns:xlink="http://www.w3.org/1999/xlink" x="0px" y="0px"
	 viewBox="0 0 526.67 521.68" style="enable-background:new 0 0 526.67 521.68;" xml:space="preserve">
<style type="text/css">
	.st0{fill:#78C7D9;}
	.st1{fill:#B9E2EC;}
	.st2{fill:#C3E6EE;}
	.st3{fill:#A9DBE6;}
</style>
<g>
	<path class="st0" d="M2.38,387.59c-0.01-2.13-0.39-4.27-0.38-6.36c0.04-8.19,0.26-16.32,4.73-23.76
		c3.76-6.25,5.21-13.48,7.11-20.44c1.48-5.46,3.21-10.8,5.21-16.07c1.13-2.98,2.23-5.96,2.81-9.14c1.01-5.58,3.05-10.84,5.37-16
		c1.62-3.59,3.09-7.25,4.6-10.88c1.86-4.48,4.23-8.55,8.19-11.59c3.97-3.05,6.6-7.21,8.96-11.52c2.97-5.42,5.65-11,8.8-16.3
		c5.33-8.97,10.82-17.85,17.6-25.85c0.76-0.89,1.58-1.74,2.41-2.56c1.9-1.86,3.71-3.77,5.1-6.1c1.19-2,2.99-3.54,4.73-5.13
		c6.76-6.19,13.42-12.47,17.96-20.63c3.12-5.6,7.36-10.44,11.29-15.47c4.46-5.7,8.89-11.42,13.53-16.98
		c5.13-6.14,9.69-12.69,14.47-19.08c2.61-3.49,5.78-6.54,8.58-9.89c6.74-8.03,11.75-17.23,17.43-25.98
		c3.19-4.92,6.5-9.67,10.58-13.97c6.98-7.35,14.7-13.85,22.33-20.47c1.45-1.26,2.78-2.66,4.31-3.8c3.16-2.36,6.46-4.39,10.26-5.74
		c5.24-1.86,9.76-5.19,14.58-7.92c1.39-0.79,2.81-1.48,4.29-2.12c5.32-2.29,9.91-5.81,14.61-9.1c5.07-3.55,10.55-6.42,15.64-9.92
		c1.71-1.18,3.88-1.65,5.99-2.01c3.66-0.62,6.91-1.95,9.42-4.89c2.25-2.64,5.14-4.43,8.45-5.55c4.45-1.51,8.49-3.95,12.81-5.77
		c3.39-1.43,6.93-1.97,10.54-2.31c0.45,0.58,0.87,0.56,1.28-0.04c6.68,0.1,13.25-0.98,19.84-1.85c0.46,0.57,0.88,0.52,1.28-0.07
		c1.48-0.19,2.96-0.33,4.43-0.57c5.5-0.89,10.94-1.28,16.39,0.52c2.19,0.72,4.64,0.21,6.99,0.51c2.79,0.35,5.42,1.09,7.99,2.13
		c2.68,1.09,5.45,1.62,8.32,2.07c4.89,0.76,9.88,1.42,14.3,4.04c5.22,3.09,10.93,5.34,15.7,9.19c1.24,1,2.44,2.07,3.59,3.17
		c2,1.91,3.9,3.92,6.11,5.62c3.1,2.39,5.21,5.49,6.59,9.23c1.42,3.87,3.75,7.12,7.86,8.73c3.53,1.39,6.47,3.67,8.98,6.51
		c2.82,3.19,5.71,6.33,8.48,9.56c4.36,5.09,7.33,11.03,9.45,17.3c2.08,6.15,5.07,11.72,8.94,16.86c3.95,5.25,6.7,11.13,9.11,17.18
		c2.49,6.27,5.37,12.29,9.82,17.46c4.74,5.52,7.32,12.22,9.93,18.86c1.73,4.38,3.82,8.56,6.21,12.6c3.8,6.42,6,13.33,6.9,20.74
		c0.37,3.02,1.46,5.95,2.13,8.95c1.52,6.79,3.41,13.49,5.02,20.26c0.66,2.77,1.26,5.61,1.4,8.44c0.23,4.6,1.45,9,2.31,13.47
		c0.97,5.07,0.65,10.2,0.62,15.3c-0.02,2.78-0.03,5.54,0.82,8.22c0.33,1.03,0.38,2.09,0.42,3.16c0.18,4.25-0.05,8.51,0.59,12.76
		c0.65,4.31-0.5,8.19-3.21,11.68c-3.23,4.16-5.25,9.01-7.33,13.8c-2.13,4.89-4.3,9.73-7.54,14.04c-1.26,1.68-1.96,3.78-2.96,5.65
		c-2.81,5.25-5.06,10.83-9.23,15.27c-0.21,0.23-0.39,0.52-0.51,0.81c-3.3,7.97-10.57,11.64-17.25,15.94
		c-3.97,2.55-8.3,4.43-12.79,5.75c-10.74,3.14-19.96,8.93-28.74,15.64c-7.78,5.95-15.47,12.04-23.89,17.11
		c-3.48,2.1-6.48,4.84-9.36,7.7c-4.61,4.58-9.86,8.05-16.35,9.43c-4.65,0.99-8.87,2.94-12.42,6.2c-2.68,2.46-5.79,4.34-8.92,6.18
		c-3.5,2.06-6.75,4.45-9.75,7.2c-3.62,3.32-7.55,6.28-11.89,8.6c-8.82,4.72-17.5,9.82-27.46,11.9c-3.12,0.65-6.23,1.29-9.25,2.41
		c-4.34,1.61-8.11,4.25-12.07,6.52c-2.32,1.33-4.65,2.6-7.13,3.58c-6.6,2.63-11.96,6.95-16.4,12.41c-2.86,3.52-6.27,6.15-10.12,8.61
		c-5.1,3.26-10.75,3.8-16.31,5.01c-4.18,0.9-8.21,2.1-11.98,4.14c-4.24,2.3-8.61,4.19-13.56,4.34c-1.14,0.04-2.31,0.45-3.38,0.91
		c-6.99,2.99-14.48,4.11-21.77,5.99c-1.02,0.26-2.06,0.45-3.09,0.68c-0.46-0.56-0.89-0.5-1.28,0.08c-4.08,0.13-7.89,1.49-11.78,2.51
		c-8.7,2.27-16.62,6.37-24.52,10.49c-2.91,1.52-5.93,2.19-9.15,2.24c-0.62-0.76-1.02-0.32-1.38,0.27
		c-5.57,0.77-11.12,1.59-16.7,2.28c-3.38,0.42-6.69,1.17-10.08,1.58c-3.2,0.38-6.2-0.12-9.06-1.04c-4.04-1.29-7.88-3.17-11.79-4.84
		c-0.57-0.24-1.11-0.65-1.56-1.09c-3.46-3.38-7.43-6.03-11.69-8.29c-2.47-1.31-4.63-3.03-6.62-4.98c-1.45-1.43-3.03-2.7-4.79-3.72
		c-10.28-5.96-17.5-14.77-23.26-24.92c-2.07-3.64-4.66-6.82-7.46-9.92c-3.35-3.7-6.44-7.66-9.36-11.71
		c-2.11-2.93-2.79-6.66-4.92-9.66c-4.01-5.64-8-11.3-13.35-15.81c-1.67-1.4-3.05-3.06-3.79-5.06c-3.12-8.4-5.6-16.96-6.3-25.95
		c-0.15-1.91-0.38-3.81-0.57-5.71C2.97,388.42,2.95,388,2.38,387.59z"/>
	<path class="st1" d="M303.46-107.26c-0.67,1.01-1.4,1.1-2.18,0.12C301.95-108.13,302.67-108.21,303.46-107.26z"/>
	<path class="st1" d="M267.45-103.98c-0.69,1.03-1.42,1.07-2.18,0.08C265.97-104.89,266.69-104.95,267.45-103.98z"/>
	<path class="st2" d="M-267.12,549.53c0.97,0.7,1.01,1.43,0.05,2.18C-268.08,551.01-268.12,550.28-267.12,549.53z"/>
	<path class="st2" d="M53.64,744.88c0.67-1,1.39-1.09,2.18-0.14C55.16,745.77,54.43,745.86,53.64,744.88z"/>
	<path class="st3" d="M-26.19,771.32c0.62-1.01,1.29-1.74,2.35-0.46C-24.48,771.71-25.25,771.96-26.19,771.32z"/>
</g>
</svg>
