<?xml version="1.0" encoding="utf-8"?>
<!-- Generator: Adobe Illustrator 23.0.1, SVG Export Plug-In . SVG Version: 6.00 Build 0)  -->
<svg version="1.1" id="Layer_1" xmlns="http://www.w3.org/2000/svg" xmlns:xlink="http://www.w3.org/1999/xlink" x="0px" y="0px"
	 viewBox="0 0 462.99 381.4" style="enable-background:new 0 0 462.99 381.4;" xml:space="preserve">
<style type="text/css">
	.st0{fill:#F3C5EE;}
	.st1{fill:#F3C5ED;}
</style>
<g>
	<path class="st0" d="M462.63,332.52c1.44,5.8-1.8,12.28-2.71,19.05c-0.56,4.2-2.92,7.89-5.6,11.07c-3.62,4.3-7.85,8.06-11.91,11.96
		c-4.59,4.41-10.46,4.57-16.08,5.6c-17.02,3.11-33.12,0.05-48.53-7.47c-6.66-3.25-13.41-6.34-20.1-9.54
		c-11.38-5.43-21.46-12.77-30.83-21.14c-6.19-5.53-12.97-9.88-21.47-10.68c-2.34-0.22-4.95-0.7-7.03,0.06
		c-5.59,2.04-11.39,1.06-17.02,1.95c-12.47,1.96-25.01,0.62-37.51,1.07c-4.81,0.17-9.42-1.32-13.82-2.53
		c-6.63-1.83-13.48-2.56-20-4.79c-6.18-2.11-12.73-2.67-19.16-3.53c-12.45-1.67-24.99-1.31-37.5-1.05
		c-3.88,0.08-7.57-0.8-11.31-1.32c-7.33-1.01-14.84-1-21.95-3.21c-5.53-1.71-10.8-4.28-16.35-5.89
		c-12.17-3.54-22.88-9.84-33.33-16.73c-1.05-0.7-2.15-1.39-3.02-2.28c-8.16-8.27-16.74-16.1-25.08-24.18
		c-7.27-7.04-13.78-14.89-20.44-22.54c-2.51-2.88-3.75-6.39-4.42-10.32c-1.23-7.25-2.13-14.62-6.14-21.19
		c-5.66-9.28-7.67-19.88-9.89-30.33c-0.48-2.27-0.15-4.71-0.19-7.07c-0.05-3.8,0.26-7.57-0.87-11.34c-1.14-3.79,0.7-7.52,1.17-11.26
		c0.42-3.33,0.99-6.75,2.64-9.92c1.13-2.17,2.07-4.7,0.77-7.32c-0.52-1.04,0-2.1,0.25-3.17c1.41-6.16,2.47-12.44,3.33-18.65
		c0.91-6.6,1.76-13.25,2.37-19.89c0.49-5.4,1.99-10.3,4.31-15.02c5.36-10.9,10.82-21.76,16.28-32.61c2.11-4.2,3.47-8.76,6.27-12.63
		c6.16-8.5,11.93-17.3,21.43-22.73c2.73-1.56,5.49-2.76,8.49-3.47c5.83-1.39,11.56-2.96,16.98-5.65c4.41-2.19,9.34-4.07,14.05-3.8
		c11.83,0.68,23.82,0.5,35.17,5.28c10.02,4.22,19.97,8.54,29.7,13.37c6.37,3.16,11.57,7.64,16.6,12.82
		c7.14,7.37,15.35,13.73,24.53,18.71c8.91,4.82,17.93,9.42,26.86,14.15c12.61,6.69,24.96,14.11,35.04,24.56
		c2.79,2.89,5.7,5.6,9.16,7.65c2.56,1.52,4.4,3.76,6.34,5.91c0.36,0.4,0.48,1.02,0.86,1.38c10.04,9.41,15.4,22.28,24.21,32.65
		c4.53,5.33,9.73,9.71,15.2,13.83c5.36,4.05,10.77,7.98,15.37,12.93c10.64,11.45,22.4,21.77,33.79,32.44
		c5.63,5.27,11.25,10.67,17.66,15.25c5.8,4.15,10.49,9.96,13.87,16.5c1.92,3.72,4.01,7.28,6.9,10.38c1.46,1.57,2.59,3.5,3.66,5.38
		c2.24,3.98,4.96,7.58,8.25,10.74c8.12,7.78,15.86,15.94,24.22,23.51c8.05,7.28,12.97,16.81,14.43,27.86
		C461.69,313.92,462.69,322.53,462.63,332.52z M453.74,330.36c1.2-6.18-0.87-12.02-0.96-18c-0.14-9.63-3.78-17.95-10.42-24.93
		c-7.73-8.13-16.86-14.71-24.52-23c-6.81-7.37-12.88-15.2-18.67-23.28c-4.85-6.77-9.05-14.13-15.81-19.17
		c-5.81-4.33-11.48-8.74-16.99-13.45c-9.43-8.05-17.9-17.02-26.31-26.03c-6.08-6.51-12.07-12.97-19.24-18.31
		c-5.22-3.89-10.82-7.26-15.64-11.72c-7.15-6.62-12.19-14.78-17.49-22.81c-2.61-3.95-3.66-8.86-6.82-12.26
		c-5.16-5.56-10.1-11.46-16.82-15.39c-2.21-1.29-3.92-3.21-5.35-5.35c-1.64-2.44-3.75-4.37-6.24-5.97c-1.97-1.27-3.7-2.91-5.63-4.25
		c-6.25-4.33-11.89-9.59-18.63-13.14c-7.83-4.12-15.68-8.21-23.52-12.33c-11.98-6.3-22.72-14.18-32.2-23.82
		c-4.06-4.13-8.05-8.21-13.51-10.8c-3.59-1.7-7.34-3.04-10.82-4.83c-9.93-5.1-20.5-8.25-31.17-11.08
		c-7.42-1.97-15.17-1.98-22.58-0.13c-8.23,2.05-16.22,5.07-24.35,7.57c-2.11,0.65-4.12,1.5-5.95,2.65
		c-9.81,6.14-16.68,15.21-22.16,24.96c-6.45,11.48-11.56,23.73-17.09,35.72c-2.34,5.07-4.45,10.15-5.34,15.87
		c-0.95,6.09-1.48,12.18-2.26,18.26c-1.2,9.29-4.46,18.27-4.09,27.83c0.07,1.73-0.92,3.48-1.31,5.24c-1.55,7-4.02,13.92-1.96,21.27
		c0.28,1.02,0.14,2.17,0.09,3.26c-0.63,13.39,2.67,25.91,8.97,37.57c3.55,6.55,4.94,13.64,6.11,20.72
		c0.85,5.13,2.78,9.26,6.34,12.83c3.85,3.86,7.94,7.53,11.42,11.7c5.96,7.12,12.39,13.71,19.6,19.55c1.68,1.36,3.11,3,4.4,4.79
		c2.67,3.69,5.82,7.03,9.62,9.55c14.07,9.31,30.12,14.13,45.82,19.65c5.62,1.97,11.73,1.95,17.66,2.62
		c6.46,0.73,12.86,1.96,19.4,1.83c12.15-0.23,24.22,0.76,36.29,2.06c10.65,1.15,20.86,4.19,31.24,6.52
		c5.12,1.15,10.21,2.36,15.5,2.34c6.72-0.02,13.45-0.06,20.17-0.02c1.81,0.01,3.65,0.05,5.41,0.42c10.04,2.1,20.18,2.7,30.16,0.34
		c8.93-2.11,16.78-0.27,24.21,4.56c7.73,5.03,15.18,10.45,22.69,15.8c14.82,10.55,30.9,18.77,48.15,24.7
		c12.98,4.46,25.98,3.83,39.06,0.88c1.04-0.23,2.2-0.66,2.94-1.37c5.08-4.91,10.66-9.37,14.49-15.44c0.85-1.35,1.6-2.93,1.85-4.49
		C452.49,343.47,455.1,337.08,453.74,330.36z"/>
	<path class="st0" d="M273.95,190.54c-0.14,6.12-5.52,9.34-10.72,6.56c-2.62-1.4-4.62-3.51-5.94-6.19
		c-3.86-7.85-6.35-16.18-8.23-24.68c-0.73-3.31,1.37-7.21,4-8.21c2.99-1.14,6.53-0.03,8.34,3.36c2.73,5.11,4.99,10.47,7.42,15.75
		c1.36,2.96,2.63,5.97,4.01,8.93C273.54,187.55,274.11,189.06,273.95,190.54z"/>
	<path class="st0" d="M165.94,76.81c-0.35,3.47-2.38,5.93-5.28,7.71c-7.01,4.31-14.85,6.7-22.5,9.5c-3.73,1.36-7.78-3.13-6.88-7.36
		c0.58-2.7,1.73-5.26,4.13-6.81c5.91-3.83,11.7-7.84,18.28-10.58c3.55-1.48,6.36-0.34,9.19,1.4
		C165.09,72.01,165.84,74.22,165.94,76.81z"/>
	<path class="st1" d="M355.9,231.93c-2.59-0.14-6.32-1.63-9.89-3.33c-5.92-2.82-11.17-6.69-15.57-11.61c-3.13-3.5-1.64-8.08,3-8.94
		c1.93-0.36,4.05-0.51,5.87,0.49c6.54,3.6,13.85,5.27,20.62,8.29c2.84,1.27,5.3,3.21,5.65,6.7
		C366.11,228.7,362.92,231.94,355.9,231.93z"/>
	<path class="st1" d="M20.84,191.86c0.05-6.06,3.07-9.87,7.57-10.12c4.12-0.22,6.64,1.45,7.52,5.47c1.89,8.64,3.58,17.32,5.4,25.98
		c0.45,2.16-0.34,3.94-1.49,5.61c-1.44,2.08-3.26,2.64-5.63,1.31c-2.31-1.3-3.89-3.19-5.17-5.43c-3.63-6.33-5.93-13.19-8-20.14
		C20.73,193.52,20.87,192.37,20.84,191.86z"/>
	<path class="st1" d="M188.51,247.25c-1.45,0-2.9,0.04-4.23-0.71c-6.27-3.58-12.57-7.12-17.69-12.36c-2.32-2.37-3.29-5.19-2.69-8.43
		c0.79-4.3,5.15-6.91,9-4.91c7.51,3.91,15.25,7.59,20.85,14.32c1.78,2.14,3.32,4.33,2.28,7.35C194.84,246,192.8,247.3,188.51,247.25
		z"/>
	<path class="st0" d="M265.82,138.06c-4.02-0.58-6.69-4.03-9.25-7.55c-1.16-1.6-2.1-3.36-3.1-5.08c-1.3-2.23-2.91-3.89-5.47-4.93
		c-3.71-1.5-4.3-3.88-2.46-7.39c2.95-5.63,8.97-7.09,14.69-2.95c6.64,4.81,10.6,11.83,13.4,19.33
		C275.28,133.88,271.29,138.26,265.82,138.06z"/>
	<path class="st0" d="M95.03,148.56c0,0.53,0.06,1.08-0.01,1.61c-0.41,3.23-2.31,5.49-5.22,6.27c-2.88,0.77-5.72-0.07-7.23-3.37
		c-2.27-4.97-6.67-7.48-10.57-10.6c-2.28-1.82-4.42-3.77-6.3-5.97c-1.78-2.09-1.63-5.18,0.17-7.53c1.67-2.17,4-3.5,6.65-2.46
		c7.88,3.08,14.8,7.67,19.99,14.46C94.13,143.09,95.44,145.61,95.03,148.56z"/>
	<path class="st0" d="M114.63,290.17c0.09,4.99-4.48,7.97-9.18,6.86c-5.5-1.29-9.91-4.32-13.3-8.84c-3.1-4.12-5-8.8-6.34-13.73
		c-0.7-2.58,0.6-5.82,2.86-6.97c2.34-1.19,4.56-0.86,6.45,1.08c0.38,0.39,0.82,0.73,1.16,1.15c4.42,5.52,9.61,10.27,14.89,14.94
		C113.12,286.4,114.48,288.49,114.63,290.17z"/>
	<path class="st0" d="M64.51,55.2c-5.43,0.18-10.33-1.53-14.93-4.23c-2.74-1.61-4.15-4.64-3.5-7.31c0.7-2.86,3.03-4.05,5.54-4.59
		c1.91-0.41,3.97-0.19,5.96-0.19c4.17,0.02,8.26,0,12.29-1.55c3.4-1.3,7.42,0.62,9.23,3.8c1.44,2.53,0.82,6.64-1.35,9.03
		C74.59,53.65,70.48,55.21,64.51,55.2z"/>
	<path class="st0" d="M415.7,365.02c-4.68,0.32-8.83-1.56-12.97-3.3c-2.38-1-3.66-2.84-3.31-5.59c0.35-2.69,2.47-3.38,4.54-4.01
		c1.19-0.37,2.48-0.47,3.74-0.52c6.41-0.26,12.15-3.07,18.21-4.63c5.29-1.36,9.49,1.65,9.44,6.58c-0.03,3.14-1.56,5.53-4.26,7.07
		C426.32,363.33,421.3,365.22,415.7,365.02z"/>
	<path class="st0" d="M218.61,142.46c1.78-0.18,3.71,0.23,5.44,1.34c6.35,4.07,11.34,9.48,15.14,15.93
		c2.5,4.24,1.04,8.57-3.11,10.42c-1.59,0.7-3.08,0.79-4.7,0.13c-2.9-1.19-5.58-2.77-7.37-5.33c-2.62-3.74-5.91-6.81-9.06-10.04
		c-1.02-1.04-1.93-2.14-2.51-3.5C210.17,146.1,212.57,142.45,218.61,142.46z"/>
	<path class="st0" d="M277.19,294.2c-0.03-3.7,1.55-6.69,4.26-7.43c3.13-0.87,6.07,0.16,7.74,2.71c2.65,4.05,5.91,6.06,10.83,5.83
		c2.66-0.12,4.75,1.4,5.98,4c1.29,2.75,0.25,4.96-1.33,7.06c-3.11,4.12-9.11,5.8-14.12,4.05
		C283.04,307.8,277.24,300.76,277.19,294.2z"/>
	<path class="st0" d="M314.31,260.19c-0.98,5.17-4.26,8.94-8.49,11.96c-4.43,3.16-9.72,3.8-14.91,4.37
		c-2.65,0.29-4.85-0.98-6.24-3.51c-1.46-2.64-0.68-4.9,0.84-7.1c0.73-1.05,1.7-1.89,2.9-2.4c4.91-2.09,9.14-5.06,12.73-9.06
		c2.44-2.72,5.7-3.05,8.94-1.54C312.97,254.27,314.11,256.9,314.31,260.19z"/>
	<path class="st0" d="M81.28,225.38c1.17-0.14,2.68,0.48,4.14,1.24c3.7,1.94,7.47,3.6,11.62,4.49c2.05,0.44,4.12,1.56,5.8,2.87
		c4.47,3.46,3.89,8.72-1.04,11.52c-2.82,1.6-5.63,1.94-8.87,1.26c-7.1-1.47-12.59-5.29-17.22-10.66c-2.05-2.39-1.9-5.18-0.93-7.7
		C75.71,225.96,78.27,225.48,81.28,225.38z"/>
	<path class="st0" d="M178.99,147.18c0.04,5.55-6.36,9.01-11.62,6.33c-2.98-1.52-5.22-4.01-7.1-6.61
		c-3.21-4.44-4.94-9.64-6.21-14.93c-0.56-2.35-0.29-4.88,2.18-6.2c2.38-1.28,5.02-1.38,7.08,0.58c5.51,5.23,10.35,11.07,14.64,17.34
		C178.66,144.72,179.09,145.95,178.99,147.18z"/>
	<path class="st1" d="M420.14,318.6c-0.11,6.12-5.8,9.09-11.26,6.23c-4.71-2.46-7.14-7.03-10.37-10.84
		c-1.49-1.76-2.57-3.92-3.58-6.02c-1.44-3-0.88-5.67,1.32-7.9c2.08-2.12,4.58-1.86,7.06-1.15c1.57,0.45,2.88,1.45,4.05,2.63
		c3.18,3.21,6.4,6.37,9.6,9.55C419.11,313.23,420.4,315.71,420.14,318.6z"/>
	<path class="st0" d="M152.05,303.89c-4.59,0.45-8.39-1.2-12.12-3.16c-1.86-0.98-3.12-2.46-3.92-4.36c-1.33-3.17,0.07-6.4,3.44-6.4
		c6.05,0,11.83-1.23,17.69-2.32c1.57-0.29,3.28-0.17,4.88,0.05c4.63,0.62,7.02,2.93,7.16,6.71c0.14,3.73-2.71,7.32-6.62,8.27
		c-0.7,0.17-1.44,0.17-2.16,0.18C157.5,302.92,154.8,304.54,152.05,303.89z"/>
	<path class="st0" d="M386.29,347.88c0.15,1.87-0.22,3.62-1.13,5.25c-3.02,5.44-8.59,5.95-11.44,0.5
		c-3.96-7.57-6.38-15.75-5.95-24.49c0.13-2.67,1.94-4.4,4.18-5.23c2.46-0.91,4.95,0.2,6.18,2.31
		C382.05,332.96,385.62,339.9,386.29,347.88z"/>
	<path class="st0" d="M241.76,275.56c-6.13-0.39-11.06-4.74-15.29-10.11c-1.55-1.97-2.77-4.22-3.43-6.7
		c-0.66-2.46-0.49-4.66,1.68-6.36c2.18-1.7,4.45-2.39,6.96-0.7c0.15,0.1,0.34,0.15,0.48,0.26c5.12,3.97,10.51,7.5,16.13,10.76
		c3.07,1.78,3.99,5.53,2.99,7.96C250,273.8,247,275.55,241.76,275.56z"/>
	<path class="st0" d="M411.88,278.84c9.73,0.06,19.78,10.31,19.27,17.42c-0.21,2.96-0.77,5.2-3.58,6.71
		c-2.92,1.57-5.28,0.21-7.62-1.09c-1.23-0.68-2.14-1.94-3.16-2.98c-2.29-2.34-4.52-4.71-7.65-6c-0.81-0.33-1.47-1.04-2.19-1.58
		c-2.76-2.05-3.91-4.76-2.98-8.1C404.79,280.36,407.87,278.76,411.88,278.84z"/>
	<path class="st0" d="M88.22,97.67c5.76,0.27,10.13,1.46,14.48,2.54c4.88,1.22,8.29,6.27,7.24,10c-1.32,4.68-6.66,7.53-11.85,5.73
		c-5.44-1.89-10.66-4.39-16.29-5.81c-2.54-0.64-3.98-2.8-3.98-5.27c0-2.43,1.44-4.54,3.72-5.61C84.01,98.11,86.66,97.45,88.22,97.67
		z"/>
	<path class="st0" d="M216.14,104.31c-5.96,0.35-10.32-2.27-14.25-6.01c-1.91-1.82-2.65-3.87-1.78-6.34
		c0.86-2.43,3.61-4.07,6.47-3.97c0.89,0.03,1.82,0.11,2.66,0.4c3.24,1.1,6.38,0.83,9.53-0.39c1.17-0.46,2.39-0.88,3.62-1.07
		c4.04-0.65,7.45,0.92,8.68,3.88c1.2,2.87,0.08,7.01-2.75,9.3C224.72,103.03,220.66,104.86,216.14,104.31z"/>
	<path class="st1" d="M144.21,186.51c-0.19-4.89-0.42-9.76,2.83-14.01c2.77-3.64,6.5-4.9,10.4-3.12c3.67,1.67,4.99,4.94,3.32,9.6
		c-1.65,4.62-2.31,9.44-3.47,14.16c-0.17,0.7-0.19,1.44-0.42,2.12c-1.26,3.76-4.27,6.4-6.79,6.03c-2.44-0.36-5.48-3.85-5.83-7.18
		C144,191.6,144.21,189.04,144.21,186.51z"/>
	<path class="st0" d="M25.02,120.76c1.16-0.08,2.16,0.3,2.95,1.12c1.25,1.3,2.69,2.51,3.59,4.03c2.56,4.36,4.95,8.82,7.27,13.32
		c2.19,4.25,1.77,7.29-1.11,9.74c-2.93,2.49-7.68,2.45-10.96-0.13c-2.64-2.08-4.51-4.79-5.42-7.96c-1.09-3.8-1.98-7.69-2.53-11.59
		C18.13,124.58,21.07,120.83,25.02,120.76z"/>
	<path class="st0" d="M319.73,222.45c-0.15,5.1-4.59,8.41-9.11,6.92c-2.72-0.9-5.41-2.11-7.06-4.77c-1.85-2.99-4.44-5.13-7.55-6.81
		c-3.51-1.9-4.96-4.79-4.17-7.37c1.07-3.49,5.1-6,9-5.59c6.73,0.71,16.94,9.4,18.63,15.89
		C319.66,221.41,319.69,222.14,319.73,222.45z"/>
	<path class="st0" d="M180.68,173.03c5.13,1.61,11.68,2.3,17.52,5.31c3.29,1.69,4.59,5.48,3.66,9.38c-0.6,2.53-3.26,5.01-6.5,4.83
		c-7.29-0.4-14.31-2-19.86-7.29c-0.77-0.74-1.44-1.65-1.95-2.59C170.74,177.43,173.6,172.83,180.68,173.03z"/>
	<path class="st0" d="M87.37,186.86c0.04-4.49,1.72-6.19,5.96-6.19c1.08,0,2.29-0.06,3.21,0.38c5.24,2.5,10.55,4.92,15.58,7.82
		c3.69,2.13,4.8,7.41,2.8,10.52c-2.33,3.61-6.39,4.8-10.38,2.92c-5.6-2.63-11.15-5.29-15.18-10.31
		C88.01,190.34,87.14,188.73,87.37,186.86z"/>
	<path class="st0" d="M353.17,327.96c-1.46,0.02-2.86-0.18-4.26-0.69c-3.55-1.3-7.02-2.74-10.93-2.99c-3.03-0.2-5.6-1.86-6.03-5.28
		c-0.4-3.23,1.33-5.54,3.91-7.25c3.52-2.34,7.42-2.95,11.47-2c3.73,0.88,7.2,2.56,10.41,4.63c3.09,1.99,4.72,5.77,3.92,8.28
		C360.5,326.19,357.53,328.05,353.17,327.96z"/>
	<path class="st1" d="M103.09,55.29c10.91,1.08,15.8,5.78,19.81,15.49c1.72,4.16-0.5,7.12-4.98,7.38c-3.1,0.18-5.77-0.73-7.84-3.03
		c-2.6-2.88-5.61-5.13-9.18-6.64c-1.56-0.66-2.72-1.83-3.74-3.11c-1.77-2.22-2.97-4.72-1.65-7.54
		C96.83,55.04,99.49,55.04,103.09,55.29z"/>
	<path class="st0" d="M148.64,273.42c-3.71-0.02-5.46-1.76-5.6-5.28c-0.11-2.5,0.83-4.56,2.43-6.4c3.88-4.47,8.82-7.42,14.2-9.62
		c3.33-1.36,6.5-0.15,9.08,1.92c3.49,2.8,3.42,7.07,0.24,10.36c-3.68,3.81-8.9,4.58-13.42,6.71
		C153.35,272.15,151.17,273.73,148.64,273.42z"/>
	<path class="st0" d="M67.8,263.22c-5.33-1.8-13.25-3.18-16.11-12.07c-0.49-1.53-1.56-2.88-2.06-4.42
		c-1.18-3.63,2.04-7.42,5.18-5.68c6.16,3.42,13.11,4.96,19.05,8.73c1.93,1.23,3.08,3.09,3.58,5.26
		C78.71,260.58,74.32,264.33,67.8,263.22z"/>
	<path class="st0" d="M246.58,295.32c4.82-0.38,9.25,1.48,13.81,2.55c2.95,0.69,4.51,3,4.76,5.98c0.26,3.17-1.05,5.8-3.83,7.28
		c-2.4,1.28-5.16,2.16-7.89,1.32c-4.67-1.44-9.44-2.65-13.8-4.98c-0.95-0.51-1.9-1.09-2.69-1.81c-3.74-3.4-3.02-7.48,1.63-9.35
		c1.01-0.4,2.05-0.84,3.11-0.94C243.3,295.2,244.95,295.32,246.58,295.32z"/>
	<path class="st0" d="M393.62,262.58c-1.07-0.13-2.33,0.07-3.19-0.44c-5.57-3.3-11.6-5.94-16.41-10.36
		c-2.68-2.46-2.46-4.42-0.03-6.99c2.45-2.59,5.46-3.46,8.89-2.84c5.05,0.91,9.59,3.18,13.94,5.77c1.68,1,2.86,2.57,3.74,4.49
		C402.71,256.9,399.74,263.05,393.62,262.58z"/>
	<path class="st1" d="M191.34,79.24c-2.5,0.13-4.65-0.76-6.42-2.42c-3.03-2.84-6.15-5.62-8.25-9.3c-0.54-0.94-1.29-1.84-1.52-2.86
		c-0.65-2.81-1.36-5.74,1.05-8.15c1.87-1.88,5.46-2,8.58,0.04c4.53,2.96,9.12,5.91,12.68,10.07c3.45,4.03,3.2,8.75-0.43,11.45
		C195.49,79.21,194.68,79.38,191.34,79.24z"/>
	<path class="st1" d="M153.33,46.57c-6.37-0.35-11.61-3.61-16.58-7.15c-2.66-1.9-3.32-6.51-1.91-8.94c1.73-2.98,4.5-4.32,7.82-3.53
		c5.72,1.35,11.87,1.72,16.27,6.48c2.55,2.75,3.64,6.68,2.18,9.35C159.47,45.78,156.84,47.07,153.33,46.57z"/>
	<path class="st0" d="M42.63,182.72c0.03-4.64,1.52-7.28,3.97-8.23c2.24-0.87,5.56,0.3,7.46,3.16c2.99,4.5,5.85,9.01,9.66,12.96
		c3.09,3.22,1.08,9.16-3.42,10.4c-3.25,0.9-6.56,0.95-9.6-1.78C45.34,194.43,43.37,188.32,42.63,182.72z"/>
	<path class="st0" d="M319.8,186.49c0.02,4.75-2.29,6.77-6.86,6.08c-0.88-0.13-1.75-0.45-2.56-0.83c-4.75-2.22-9.43-4.59-14.26-6.66
		c-5.2-2.22-6.18-7.21-2.32-10.28c2.29-1.83,5.22-3.07,8.09-2.6c5.77,0.95,11.18,2.99,15.27,7.54
		C318.92,181.71,319.99,183.92,319.8,186.49z"/>
	<path class="st1" d="M129.48,181.82c-1.98,0.39-3.76-1.16-5.33-2.51c-4.36-3.76-8.97-7.33-11.66-12.68
		c-1.26-2.51-1.48-4.84,0.4-7.06c1.49-1.75,5.34-2.74,7.55-1.39c5.37,3.27,11.15,6.08,15.09,11.28c1.99,2.63,2.77,5.43,1.14,8.59
		C135.26,180.82,132.86,181.7,129.48,181.82z"/>
	<path class="st0" d="M128.24,117.39c1.62-0.11,3.21,0.5,4.45,1.52c3.75,3.1,7.45,6.28,11.01,9.6c2.43,2.27,3.11,5.31,2.41,8.5
		c-1.04,4.73-5.98,6.9-10.13,4.34c-6-3.7-10.63-8.69-13.13-15.39C120.94,120.84,123.26,117.19,128.24,117.39z"/>
	<path class="st0" d="M374.63,302.89c-2.23,0.2-4.51-0.73-6.53-2.48c-4.52-3.9-7.35-8.94-9.67-14.31c-0.41-0.96-0.48-2.13-0.45-3.2
		c0.09-4.03,3.01-6.23,6.55-4.47c6.55,3.27,12.01,8.1,16.7,13.68c1.84,2.18,1.84,5.12,0.41,7.69
		C380.25,302.3,377.76,302.87,374.63,302.89z"/>
	<path class="st0" d="M237.65,209.04c-2.35,0.24-4.43-0.68-6.51-1.95c-3.78-2.31-6.69-5.55-9.72-8.65
		c-2.26-2.32-2.71-5.68-1.32-7.91c1.35-2.15,5.06-3.97,7.63-3.1c6.64,2.24,12.49,5.83,16.61,11.68c1.53,2.17,2.05,4.89,0.68,7.23
		C243.48,208.94,240.6,209.18,237.65,209.04z"/>
	<path class="st0" d="M175.79,101.02c5.71-0.37,10.78,1.89,14.81,6.63c2.9,3.41,3.43,6.89,1.4,9.91c-1.69,2.52-5.42,3.41-9.26,2.28
		c-4.41-1.29-8.25-3.66-12.03-6.15c-1.57-1.04-2.58-2.55-3.22-4.27c-1.84-4.96,0.35-8.2,5.61-8.4
		C173.82,101,174.55,101.02,175.79,101.02z"/>
	<path class="st0" d="M55.75,97.84c-6.77-0.08-9.63-3.07-11.92-6.67c-2.16-3.38-3.22-7.28-4.23-11.12
		c-0.91-3.46,0.28-6.31,2.61-7.64c2.46-1.41,4.99-1.02,7.82,1.75c4.16,4.06,7.44,8.88,10.09,13.99
		C62.96,93.6,59.86,97.96,55.75,97.84z"/>
	<path class="st0" d="M108.28,13.75c3.8,0.74,8.17,0.98,11.43,4.45c2.36,2.51,3.44,6.27,2.3,8.86c-0.97,2.21-6.06,4.57-8.93,3.76
		c-4.2-1.2-8.39-2.09-12.78-1.78c-2.73,0.19-4.47-1.41-5.7-3.47c-1.38-2.3,0.22-4.21,1.59-5.83
		C99.22,16.17,102.92,13.75,108.28,13.75z"/>
	<path class="st0" d="M141.93,228.69c-4.78-1.83-9.89-0.73-14.89-1.16c-4.01-0.34-5.77-3.57-4.17-7.47
		c2.03-4.96,6.74-6.34,11.21-7.57c2.52-0.69,5.42-0.44,8.08-0.09c6.53,0.85,10.27,7.9,6.96,12.67
		C147.38,227.57,144.66,227.9,141.93,228.69z"/>
	<path class="st0" d="M327.41,242.91c-0.01-4.89,1.83-6.66,5.69-6.64c2.32,0.01,4.46,0.76,5.81,2.5c2.89,3.7,6.21,7.08,8.44,11.27
		c2.48,4.65,2.11,7.92-1.32,10.62c-3.16,2.48-7.96,2.48-10.77-1.12C331.26,254.41,328.58,248.41,327.41,242.91z"/>
	<path class="st1" d="M285.73,248.29c-6.33,0.21-11.1-2.26-14.88-6.9c-1.7-2.08-1.8-4.49-0.74-6.61c1.13-2.27,3.6-3.3,6.02-2.55
		c4.48,1.38,8.98,0.57,13.47,0.73c4.89,0.17,7.68,1.83,8.31,5.22c0.65,3.49-1.66,7.3-5.59,8.9
		C290.14,247.97,287.87,248.64,285.73,248.29z"/>
	<path class="st0" d="M440.81,319.55c-1.12,4.58-0.91,9.9-2.72,14.84c-0.83,2.25-2.11,4.2-4.91,4.43c-2.77,0.23-4.5-1.21-5.51-3.52
		c-2.79-6.39-4.57-12.92-1.31-19.7c1.28-2.66,2.98-4.94,6.38-5.12C437.75,310.22,440.74,313.34,440.81,319.55z"/>
	<path class="st0" d="M325.56,291.93c-0.26,0-1.38,0.14-2.44-0.02c-4.19-0.63-6.06-4.91-3.27-8.1c3.21-3.67,6.6-7.29,10.94-9.73
		c4.85-2.72,9.46-2.15,11.74,1.3c2.39,3.63,1.53,7.66-2.85,11.34C335.89,289.9,331.66,292.36,325.56,291.93z"/>
	<path class="st0" d="M124.86,245.02c3.98-0.28,6.93,1.66,9.08,4.85c2.79,4.15,0.97,9.41-3.94,10.1c-4.37,0.62-8.41,2.07-12.59,3.2
		c-5.07,1.38-8.42-1.88-6.89-6.96C112.26,250.46,117.03,244.65,124.86,245.02z"/>
	<path class="st0" d="M81.27,84.67c-2.54,0.18-4.8-0.81-6.77-2.59c-3.15-2.84-5.39-6.35-7.03-10.2c-1.69-3.98,0.79-7.67,5.18-7.95
		c3.74-0.24,15.83,7.23,17.3,10.69C92.06,79.6,87.74,84.7,81.27,84.67z"/>
	<path class="st0" d="M259.52,236.01c0.55,3.93-0.83,5.38-3.08,6.29c-5.18,2.09-11.18-1.23-11.83-6.84
		c-0.64-5.55,1-10.78,3.38-15.69c1.09-2.25,3.42-3.22,5.97-2.91c2.1,0.25,4.48,2.93,4.64,5.4
		C258.93,227.28,258.16,232.39,259.52,236.01z"/>
	<path class="st0" d="M202.36,125.01c2.79-0.35,4.91,0.91,6.32,3.69c1.38,2.73,1.14,5.31-0.52,7.72c-1.45,2.1-3.36,3.73-5.48,5.22
		c-2,1.4-4.51,2.25-5.39,5.09c-0.55,1.78-2.38,1.36-3.73,0.71c-3.45-1.65-5.53-6.62-4.12-10.22c1.06-2.69,2.36-5.29,4.07-7.68
		C196.31,125.63,197.45,124.95,202.36,125.01z"/>
	<path class="st0" d="M65.89,224.44c-3.31-0.43-5.56-1-6.68-3.48c-1.08-2.4-1.66-4.85,0.24-7.13c2.78-3.34,5.64-6.6,9.86-8.27
		c3.94-1.56,8.1-0.39,10.5,3.08c1.84,2.66,1.24,6.24-1.9,9.22C74.29,221.29,69.6,222.73,65.89,224.44z"/>
	<path class="st0" d="M206.12,284.38c-6.38,0.11-10.6-3.39-14.75-6.89c-1.9-1.6-1.97-3.96-0.8-5.98c1.51-2.6,4.38-3.65,7.02-3.18
		c4.08,0.72,8.12,1.58,12.23,2.19c3.57,0.53,5.32,3.2,5.22,6.55c-0.11,3.67-2.14,6.34-5.58,7.09
		C208.24,284.42,206.94,284.33,206.12,284.38z"/>
	<path class="st0" d="M52.76,150.14c4.79,1.48,10.14,4.05,14.1,8.68c1.72,2.01,1.4,4.78-0.22,7.06c-2.08,2.94-6.11,4.79-8.98,3.5
		c-5.25-2.36-9.4-6.26-11.46-11.66C44.51,153.3,47.21,150.02,52.76,150.14z"/>
	<path class="st0" d="M200.38,311.59c-3.2,0.55-6.17-0.83-8.93-2.64c-3.17-2.08-4.56-6.26-3.21-8.99c1.46-2.96,4.19-4.06,8.3-3.02
		c2.64,0.66,5.36,0.54,7.99,1.38c4.21,1.35,6.3,3.26,6.14,6.4c-0.16,3.16-3.74,6.54-7.3,6.85
		C202.48,311.66,201.57,311.59,200.38,311.59z"/>
	<path class="st0" d="M220.73,226.49c5.57,0.06,9.47,2.73,11.17,7.64c1.3,3.77-0.52,7.02-4.49,7.53c-2.66,0.34-5.39,0.41-7.94-0.96
		c-1.58-0.85-3.26-1.56-4.96-2.11c-4.12-1.32-5.31-4.68-2.81-8.19C213.6,227.74,216.58,226.45,220.73,226.49z"/>
</g>
</svg>
