<?xml version="1.0" encoding="utf-8"?>
<!-- Generator: Adobe Illustrator 23.0.1, SVG Export Plug-In . SVG Version: 6.00 Build 0)  -->
<svg version="1.1" id="Layer_1" xmlns="http://www.w3.org/2000/svg" xmlns:xlink="http://www.w3.org/1999/xlink" x="0px" y="0px"
	 viewBox="0 0 329.29 561.57" style="enable-background:new 0 0 329.29 561.57;" xml:space="preserve">
<g>
	<path d="M136.21,561.42c-11.1,0.67-21.03-0.97-30.67-4.63c-3.5-1.33-6.57-3.28-8.6-6.4c-6.85-10.52-13.41-21.21-15.51-33.9
		c-0.38-2.32-0.61-4.67-0.78-7.01c-0.68-9.53,0.07-19.12-2.02-28.61c-0.88-3.98-0.12-8.3-0.4-12.45
		c-1.23-18.32-3.69-36.44-8.4-54.23c-3.2-12.1-5.86-24.35-9.27-36.39c-5.3-18.7-11.42-37.12-20.21-54.56
		c-5.06-10.05-9.83-20.26-14.58-30.46c-5.36-11.51-10.62-23.06-15.81-34.64c-5.31-11.85-9.02-24.19-9.86-37.18
		c-0.33-5.03,0.18-10.15,0.78-15.18c1.48-12.62,2.84-25.33,7.53-37.27c4.57-11.64,9.14-23.32,14.62-34.54
		c4.7-9.62,11.57-17.97,18.75-25.93c7.05-7.81,14.17-15.56,21.45-23.16C71.26,76.49,79.62,68.43,87.6,60
		c8.77-9.26,17.73-17.95,29.66-23.44c7.91-3.64,15.74-7.24,23.97-10.19c11.25-4.03,22.19-8.95,33.1-13.86
		c8.19-3.69,16.65-6.12,25.5-7.41c2.86-0.42,5.71-1.04,8.49-1.85c15.57-4.53,31.07-4.74,46.65,0.07c6.4,1.98,12.77,3.71,18.77,7
		c5.22,2.87,9.23,6.88,13.58,10.66c2.32,2.01,4.46,4.56,7.17,5.72c8.36,3.57,12.62,10.51,16.43,18.08
		c4.84,9.64,7.8,19.93,10.65,30.26c1.74,6.3,3.48,12.61,4.92,18.97c2.97,13.04,3.73,26.18,1.51,39.47c-1.56,9.31-2.45,18.72-4.14,28
		c-1.65,9.09-3.89,18.07-5.96,27.07c-2.39,10.44-4.78,20.88-7.35,31.27c-2.75,11.08-5.8,22.09-8.54,33.18
		c-1.09,4.39-1.8,8.89-2.5,13.36c-2.69,17.21-5.33,34.43-7.96,51.65c-1.61,10.56-3,21.17-4.78,31.7
		c-1.24,7.32-2.75,14.61-4.53,21.82c-2.47,10.05-5.69,19.8-11.66,28.52c-2.52,3.68-4.23,7.97-5.94,12.14
		c-7.61,18.6-13.59,37.96-26.48,54.02c-5.09,6.34-9.57,13.19-14.13,19.95c-1.92,2.84-3.08,6.19-4.96,9.05
		c-7.08,10.74-14,21.61-21.6,31.98c-6.57,8.96-14.54,16.87-23.68,23.13c-10.42,7.14-21.91,12.08-35.09,11.1
		C137.6,561.35,136.51,561.42,136.21,561.42z M138.45,554.71c3.96-0.39,8.11-0.13,11.83-1.29c7.79-2.43,15.41-5.6,21.6-11.16
		c4.86-4.37,9.57-8.93,14.04-13.69c10.02-10.66,16.82-23.6,24.61-35.79c6.63-10.37,12.23-21.38,20.12-30.96
		c12.6-15.32,18.46-33.95,25.51-52.02c1.96-5.02,4.08-10.16,7.15-14.53c5.68-8.07,8.77-17.06,10.99-26.43
		c1.88-7.93,3.42-15.95,4.98-23.96c0.94-4.81,1.76-9.64,2.4-14.49c0.88-6.65,1.32-13.36,2.33-19.99
		c2.27-14.88,4.74-29.73,7.22-44.58c0.84-5,1.74-10.01,2.99-14.92c2.85-11.24,6.05-22.39,8.88-33.64
		c2.53-10.03,4.77-20.13,7.1-30.21c2.08-9,4.39-17.97,6.06-27.05c1.71-9.27,2.64-18.68,4.13-28c1.94-12.19,1.26-24.26-1.44-36.23
		c-1.4-6.19-3.29-12.27-4.9-18.42c-2.72-10.39-6.14-20.52-10.95-30.14c-2.86-5.72-6.12-10.93-12.27-14.05
		c-3.28-1.66-5.79-4.87-8.64-7.39c-3.63-3.22-6.99-6.6-11.38-9.05c-5.68-3.18-11.75-4.58-17.84-6.33
		c-14.19-4.08-28.27-3.89-42.38,0.31c-3.11,0.93-6.33,1.55-9.54,2.12c-7.88,1.42-15.53,3.51-22.9,6.74
		c-11.46,5.01-22.88,10.19-34.65,14.39c-8.26,2.95-16.25,6.18-23.7,10.78c-1.08,0.67-2.12,1.5-3.29,1.9
		c-5.35,1.84-9.29,5.58-13.1,9.51c-8.71,9-17.48,17.95-26.1,27.04c-11.48,12.11-23.14,24.07-34.14,36.6
		c-5.21,5.94-9.84,12.69-13.34,19.76c-5.13,10.38-9.16,21.33-13.39,32.14c-4.2,10.75-5.26,22.2-7.02,33.51
		c-2.77,17.8-0.04,34.74,7.39,50.98c5.66,12.37,11.43,24.7,17.49,36.88c8.5,17.08,17,34.16,23.19,52.23
		c3.65,10.64,6.68,21.5,9.62,32.35c2.32,8.57,3.84,17.36,6.15,25.93c3.93,14.57,7.51,29.14,8.06,44.36
		c0.38,10.51,1.59,20.98,2.4,31.48c0.41,5.41,0.64,10.83,1.14,16.23c0.67,7.21,0.97,14.51,2.42,21.56
		c2.19,10.67,8.28,19.7,14.14,28.65c1.43,2.18,4.43,3.69,7.03,4.68C118.07,554.22,128.18,554.93,138.45,554.71z"/>
</g>
</svg>
