<?xml version="1.0" encoding="utf-8"?>
<!-- Generator: Adobe Illustrator 23.0.1, SVG Export Plug-In . SVG Version: 6.00 Build 0)  -->
<svg version="1.1" id="Layer_1" xmlns="http://www.w3.org/2000/svg" xmlns:xlink="http://www.w3.org/1999/xlink" x="0px" y="0px"
	 viewBox="0 0 339.83 575.33" style="enable-background:new 0 0 339.83 575.33;" xml:space="preserve">
<style type="text/css">
	.st0{fill:#7DC9DA;}
	.st1{fill:#A8DBE6;}
</style>
<g>
	<path class="st0" d="M338.78,309.16c0.04,6.92-1.05,13.7-2.35,20.49c-0.85,4.44-1.38,8.96-1.7,13.47
		c-0.33,4.57-1.12,8.99-2.8,13.26c-2.08,5.28-2.49,10.98-3.98,16.37c-2.13,7.71-3.6,15.56-5.7,23.26c-1.29,4.73-2.82,9.4-2.95,14.36
		c-0.05,1.87-0.78,3.54-1.6,5.17c-6.11,12.08-9.45,25.16-13.36,37.99c-3.69,12.11-9.37,23.21-15.36,34.2
		c-2.96,5.43-5.64,10.96-8.32,16.53c-5.75,11.98-12.46,23.39-21.49,33.27c-5.89,6.45-12.08,12.68-19.18,17.7
		c-4.83,3.41-10.1,6.35-15.37,9.21c-7.45,4.05-15.53,6.11-23.52,8.32c-11.9,3.28-23.97,3.86-35.79-0.84
		c-4.29-1.71-7.79-4.31-10.8-7.96c-4.26-5.17-9.35-9.63-13.38-15.03c-5.1-6.83-11.56-12.53-16.39-19.61
		c-2.36-3.46-4.84-6.78-6.07-10.88c-0.79-2.64-2.67-4.73-4.17-6.99c-7.23-10.93-13.76-22.2-17.45-34.9
		c-1.07-3.67-2.03-7.33-2.27-11.17c-0.43-6.98-3.5-13.29-5.39-19.89c-1.88-6.59-4.56-12.95-6.69-19.47
		c-1.14-3.49-3.4-6.36-4.76-9.76c-2.37-5.94-3.53-12.2-5.68-18.18c-4.74-13.17-12.61-24.32-21.15-35.25
		c-6.93-8.88-12.26-18.78-15.32-29.86c-1.48-5.36-4.19-10.43-6.7-15.45c-4.64-9.27-8.66-18.77-11.81-28.64
		c-0.28-0.86-0.42-1.84-0.93-2.55c-4.93-6.92-6.47-15.25-9.6-22.91c-1.8-4.4-2.47-9.12-3.36-13.74c-1.58-8.18-3.89-16.36-3.3-24.76
		c1.01-14.32,3.28-28.45,9.12-41.72c3.51-7.97,6.16-16.28,10.02-24.11c2.72-5.52,4.86-11.31,7.88-16.71
		c2.12-3.79,3.87-7.83,5.33-11.92c3.7-10.33,10.24-18.75,17.65-26.55c5.37-5.66,10.98-11.03,15.43-17.56
		c3.05-4.46,7.19-8.31,11.93-11.05c7.9-4.57,15-10.18,22.12-15.78c1.3-1.02,2.67-1.8,4.22-2.42c8.28-3.31,15.72-8.27,23.71-12.19
		c4.24-2.08,8.54-4.01,12.84-5.94c8.08-3.64,14.47-9.55,21.13-15.12c0.84-0.7,1.59-1.64,2.56-2.01c7.88-3,14.11-8.82,21.55-12.52
		c4.88-2.43,9.83-4.74,15.48-4.71c4.04,0.02,7.95-1.39,11.56-2.62c7.24-2.46,14.5-2.39,21.53-1.11
		c14.84,2.69,28.98,7.75,41.85,15.89c1.07,0.68,2.18,1.37,3.04,2.28c6.48,6.94,14.51,11.98,21.79,17.93
		c4.21,3.44,7.57,7.8,9.49,13.07c2.36,6.48,5.65,12.77,7.01,19.45c1.88,9.27,7.34,17.16,8.95,26.44c0.62,3.57,1.51,7.14,1.57,10.74
		c0.22,12.72,0.67,25.45,0.08,38.17c-0.24,5.25-1.02,10.47-0.88,15.75c0.03,1.07-0.02,2.29-0.49,3.21
		c-4.35,8.39-3.46,17.61-4.38,26.55c-0.62,6.01,0.44,11.48,2.08,17.36c2.53,9.09,5.48,18.28,5.9,27.86
		c0.29,6.7,3.1,12.62,5.34,18.71c0.63,1.71,1.26,3.35,1.48,5.16c0.88,7.2,2.5,14.39,2.51,21.58c0.01,4.99,1.04,10.06-0.26,15.13
		c-0.7,2.75-0.29,5.78-0.39,8.69C337.5,306.26,337.51,307.7,338.78,309.16z M320.32,132.07c-0.24-9.61-1.61-19.17-1.23-28.81
		c0.05-1.23-0.41-2.5-0.73-3.72c-2.47-9.46-6.82-18.28-9.31-27.78c-1.5-5.73-4.3-11.16-6.17-16.86c-1.44-4.4-3.81-8.41-7.45-11.21
		c-7.89-6.06-16.1-11.68-23.07-18.91c-2.88-2.99-6.78-4.92-10.71-6.38c-9.99-3.73-19.83-7.92-30.48-9.64
		c-4.39-0.71-8.58-0.83-12.88,0.48c-4.15,1.27-8.37,2.65-12.65,3.04c-6.16,0.56-11.52,2.8-16.86,5.65
		c-6.71,3.6-12.67,8.46-19.66,11.58c-1.28,0.57-2.4,1.64-3.4,2.67c-6.41,6.53-13.61,11.93-22.06,15.53
		c-12.88,5.48-24.41,13.58-37.26,19.12c-1.63,0.71-3.12,1.86-4.52,3c-4.8,3.89-9.74,7.53-15.31,10.32
		c-5.74,2.88-10.62,7.04-14.67,12c-5.17,6.32-10.51,12.4-16.49,18.03c-4.56,4.3-9.07,9-11.69,14.91
		c-3.9,8.78-7.82,17.55-11.99,26.22c-5.57,11.6-10.7,23.42-15.31,35.46c-5.22,13.65-8.76,27.54-8.11,42.3
		c0.2,4.57,1.52,8.93,2.08,13.42c1.58,12.71,5.14,24.77,11.29,36.05c0.87,1.59,1.8,3.2,2.34,4.91c3.57,11.27,8.36,22.04,13.13,32.83
		c2.27,5.13,5.37,9.95,6.68,15.48c2.67,11.25,8.75,20.68,15.92,29.44c6.67,8.16,13.33,16.27,17.42,26.12
		c2.28,5.48,4.88,10.73,6.18,16.7c1.41,6.48,4.69,12.55,6.89,18.88c3.73,10.74,7.27,21.55,10.84,32.34
		c0.51,1.54,0.94,3.14,1.12,4.75c1.52,13.43,6.27,25.65,13.64,36.92c3.87,5.92,8.04,11.68,11.42,17.87
		c3.43,6.28,7.52,11.96,12.39,17.14c1.24,1.32,2.58,2.58,3.7,3.99c6.22,7.83,13.1,15.06,19.68,22.57c1.98,2.26,4.46,3.71,7.19,4.77
		c7.79,3.04,15.79,3.87,23.95,1.86c16.32-4.02,31.59-10.11,45.03-20.67c10.48-8.24,18.65-18.2,25.49-29.43
		c8.21-13.49,15.33-27.61,23.07-41.37c6.95-12.35,11.82-25.72,14.92-39.59c1.59-7.11,3-14.18,7.17-20.36
		c0.89-1.32,1.74-2.94,1.85-4.48c0.5-6.53,1.92-12.87,3.15-19.27c2.32-12.1,5.56-23.94,9.13-35.69c1.54-5.07,2.75-10.1,2.98-15.42
		c0.2-4.7,0.15-9.57,1.42-14.02c3.56-12.4,2.7-25.17,3.94-37.75c0.69-6.96-1.88-13.65-2.09-20.52c-0.2-6.84-1.99-13.12-5.03-19.13
		c-1.17-2.32-1.78-4.8-2.12-7.3c-1.69-12.42-5.07-24.39-9.28-36.16c-0.44-1.22-0.83-2.42-0.35-3.7c1.37-3.69,0.65-7.44,0.63-11.23
		c-0.04-9.38-0.37-18.9,3.95-27.7c0.31-0.63,0.48-1.4,0.49-2.11C318.6,150.13,320.64,141.17,320.32,132.07z"/>
	<path class="st1" d="M338.78,309.16c-1.27-1.46-1.28-2.9,0.05-4.32C340.17,306.3,340.17,307.74,338.78,309.16z"/>
</g>
</svg>
