<?xml version="1.0" encoding="utf-8"?>
<!-- Generator: Adobe Illustrator 23.0.1, SVG Export Plug-In . SVG Version: 6.00 Build 0)  -->
<svg version="1.1" id="Layer_1" xmlns="http://www.w3.org/2000/svg" xmlns:xlink="http://www.w3.org/1999/xlink" x="0px" y="0px"
	 viewBox="0 0 392.48 271.63" style="enable-background:new 0 0 392.48 271.63;" xml:space="preserve">
<g>
	<path d="M144.07,140.18c-2.55,3.52-6.09,4.97-10.27,5.15c-2.38,0.1-4.57-0.57-5.35-2.88c-1.34-3.96-3.99-7.73-2.57-12.23
		C136.17,124.51,141.48,126.55,144.07,140.18z"/>
	<path d="M323.47,22.54c2.49,0.95,5.63,1.17,6.69,2.77c1.87,2.83,2.72,6.45,3.43,9.86c0.18,0.85-1.82,3.07-2.82,3.07
		c-2.85-0.01-5.04,0.65-7.27,2.54c-1.9,1.61-2.95,0.86-4.1-2.12c-0.06-0.16,0.03-0.45-0.07-0.52c-5.56-4.01-3.86-8.61-0.75-13.56
		c1.04,0.6,2.2,1.27,3.64,2.1C322.58,25.48,322.94,24.3,323.47,22.54z"/>
	<path d="M268.63,38.4c0,3.2,0.24,5.7-0.06,8.14c-0.36,2.86-3.21,6-5.65,5.88c-2.81-0.13-6.33,0.59-7.9-2.9
		c-1.16-2.57-2.17-5.26-2.82-8c-0.46-1.94,0.63-3.76,2.7-4.06c3.55-0.52,7.15-0.81,10.73-0.84
		C266.67,36.62,267.74,37.84,268.63,38.4z"/>
	<path d="M343.37,17.36c2.43-1.21,4.18-2.08,6.41-3.19c0.22,0.14,0.89,0.78,1.69,1.06c4.26,1.52,6.55,4,5.07,8.87
		c-0.19,0.62,1.08,1.69,2.02,3.06c-2.45,1.64-4.79,3.5-7.41,4.82c-1.05,0.53-2.8,0.12-4.08-0.31c-3.56-1.21-3.46-5.23-5.41-7.72
		c-0.59-0.75,0.59-2.9,1-4.4C342.9,18.68,343.21,17.84,343.37,17.36z"/>
	<path d="M227.99,37.94c1.06-2.71,0.75-5.98,3.88-6.94c2.57-0.79,5.32-2.38,7.95,0.42c1.73,1.85,3.64,6.9,2.94,9.22
		c-0.73,2.42-5.17,5.98-7.65,6.09c-0.34,0.02-0.96-0.1-1-0.25c-0.56-2.42-3.38-2.46-4.44-4.22
		C228.86,40.91,228.5,39.29,227.99,37.94z"/>
	<path d="M33.16,193.79c2.53-1.09,4.79-2.25,7.17-3c1.28-0.4,3.05-0.6,4.13-0.02c3.66,1.96,2.99,5.89,3.25,9.14
		c0.23,2.82-1.7,4.52-4.61,5.18c-6.34,1.44-10.3-2-9.94-8.66C33.19,195.72,33.16,195,33.16,193.79z"/>
	<path d="M126.58,174.67c0.05,5.13-1.95,7.3-5.77,7.81c-0.9,0.12-1.79,0.25-2.68,0.43c-2.67,0.55-4.45-0.06-4.77-3.19
		c-0.15-1.41-0.94-2.74-1.2-4.15c-0.58-3.18,0.52-5.12,3.42-6.38c0.17-0.07,0.35-0.09,0.52-0.15c2.16-0.79,4.64-2.85,6.56-0.91
		C124.7,170.2,125.75,173.22,126.58,174.67z"/>
	<path d="M342.51,8.07c-0.13,1.47,0.25,3.38-0.52,4.3c-0.85,1.01-2.2,2.8-4.36,1.46c-0.42-0.26-2.16,1.15-2.3,0.97
		c-0.82-1.01-4.34,2.06-3.08-1.96c0.01-0.04-1.11-0.55-1.74-0.65c-3.21-0.49-3.59-3.49-3.25-5.33c0.31-1.7,0.09-4.87,3.57-5.07
		c2.18-0.12,3.64-3.15,6.65-1.05C340.11,2.57,342.69,5.1,342.51,8.07z"/>
	<path d="M172.75,76.26c0.08,3.91-0.55,4.72-4.21,5.28c-5,0.76-7.05-0.19-9.12-4.23c-2.81-5.49-2.08-7.15,3.8-8.75
		c0.68-0.18,1.32-0.5,1.99-0.72c3.46-1.14,6.13,0.13,7.06,3.58C172.68,72.96,172.6,74.64,172.75,76.26z"/>
	<path d="M83.22,122.99c1.52-0.68,2.34-1.06,3.16-1.42c4.73-2.04,9.26,0.01,9.91,5.09c0.26,2,1.75,4.4-0.29,6.59
		c-1.95,2.08-3.97,2.87-6.9,2.34c-3.03-0.55-4.12-2.74-4.84-5C83.53,128.27,83.56,125.7,83.22,122.99z"/>
	<path d="M55.33,182.63c2.73,0,5.02-0.15,7.29,0.04c2.33,0.2,4.07,1.53,4.81,3.81c0.89,2.73,1.13,5.56-0.14,8.22
		c-0.31,0.66-1.44,1.16-2.27,1.31c-5.78,1.04-10.9-4.13-9.97-9.95C55.18,185.21,55.19,184.34,55.33,182.63z"/>
	<path d="M288.47,46.26c0.58-3.57,3.42-7.04,6.63-7.62c2-0.36,4.56,1.45,5.78,4.08c1.46,3.14,0.72,6.58-1.9,8.39
		c-2.12,1.47-4.29,4.65-6.9,2.52C290.16,52.06,289.63,48.78,288.47,46.26z"/>
	<path d="M166.95,104.74c-2.47,4.12-5.35,5.47-8.73,4.28c-2.6-0.91-6.25-7.15-5.23-9.85c0.61-1.62,2.29-3.25,3.89-3.99
		c2.08-0.95,4.32-0.18,5.64,1.93C164.04,99.52,165.39,102.03,166.95,104.74z"/>
	<path d="M218.15,107.78c0.85,5.95-3.7,7.06-7.3,8.78c-0.74,0.35-2.55-0.36-3.16-1.13c-1.5-1.9-2.82-3.95-2.66-6.69
		c0.21-3.51,0.78-4.35,4.25-4.68c0.7-0.07,1.55,0.23,2.1-0.07c2.55-1.38,4.68-2.37,4.69,2.11
		C216.06,106.73,217.6,107.36,218.15,107.78z"/>
	<path d="M94.92,181.95c-5.64,2.84-7.51,2.78-9.88-0.1c-2.45-2.96-2.84-6.48-0.98-8.78c1.63-2.02,4.55-2.92,6.72-1.61
		c1.78,1.08,3.9,2.45,4.61,4.2C96.07,177.38,95.15,179.74,94.92,181.95z"/>
	<path d="M313.62,21.79c-1.37,0.23-2.64,0.31-3.83,0.68c-1,0.32-1.88,0.98-2.71,1.44c-4.3-2.8-5.99-6.96-4.2-9.92
		c1.29-2.14,6.07-4.07,8.11-3.27C314.76,12.2,315.71,15.77,313.62,21.79z"/>
	<path d="M92.55,163.49c-1.59,1.02-3.36,2.16-5.05,3.25c-4.93-0.59-7.59-3.26-7.96-8.1c-0.25-3.29,0.95-4.63,4.25-4.85
		c5.41-0.37,6.86,1.09,6.94,6.4C90.75,161.26,91.88,162.32,92.55,163.49z"/>
	<path d="M74.97,166.59c-2.76-0.27-5.07-0.31-7.29-0.77c-3.09-0.64-5.65-6.68-4.14-9.36c1.08-1.92,6.38-2.69,8.29-1.06
		c2.22,1.91,4.29,3.95,3.02,7.41C74.53,163.67,74.89,164.78,74.97,166.59z"/>
	<path d="M72.77,218.33c0.04,4.05-2.28,6.75-5.01,6.49c-3.5-0.34-5.66-2.86-5.12-6.34c0.3-1.93,0.78-3.96,1.72-5.64
		c1.62-2.91,4.72-2.82,6.3,0.11C71.66,214.82,72.23,216.92,72.77,218.33z"/>
	<path d="M368.59,13.81c-1.39-0.59-2.69-1.09-3.94-1.68c-3.18-1.51-4.01-3.79-2.58-6.94c1.79-3.95,3.12-4.48,6.58-2.63
		c3.29,1.76,4.47,5.23,2.63,8.07C370.5,11.81,369.44,12.81,368.59,13.81z"/>
	<path d="M118.25,144.13c-2.01,0.93-2.96,1.42-3.96,1.82c-2.26,0.89-4.67,0.51-5.81-1.38c-1.1-1.82-1.78-4.42-1.43-6.48
		c0.52-3.1,6.3-3.69,8.41-0.78C116.81,139.17,117.28,141.67,118.25,144.13z"/>
	<path d="M191.2,114.19c-1.11,0.7-1.56,0.99-2.01,1.26c-1.87,1.1-3.77,2.41-5.94,0.74c-2.33-1.8-2.92-4.48-2.93-7.17
		c-0.01-2.54,2.17-2.93,4.16-3.4c1.97-0.46,3.74-0.25,4.57,1.72C189.94,109.44,190.44,111.71,191.2,114.19z"/>
	<path d="M149.88,114.8c-2.26,1.87-3.38,5.28-7.01,4.11c-1.86-0.6-3.97-4.97-3.14-6.86c0.63-1.43,2.08-3.07,3.49-3.47
		C146.06,107.78,147.68,109.48,149.88,114.8z"/>
	<path d="M216.45,57.85c1.8,0.19,3.57,0.38,5.76,0.61c0.38,1.67,0.92,3.35,1.12,5.07c0.24,2.07-0.04,3.93-2.67,4.52
		c-2.47,0.55-4.35-0.36-5.41-2.35C213.94,63.23,213.68,60.55,216.45,57.85z"/>
	<path d="M269.5,26.35c-3.01-3.72-3.55-5.96-2.16-8.07c0.9-1.36,5.29-2.74,6.32-1.55c1.29,1.5,2.45,3.67,2.49,5.58
		C276.23,26.78,272.09,25.19,269.5,26.35z"/>
	<path d="M24.11,222.18c-0.07,2.85-1.05,3.99-3.26,3.79c-3.07-0.27-5.56-3.05-5.52-6.18c0.03-2.31,1.68-3.71,4.32-3.67
		C22.59,216.17,24.2,218.36,24.11,222.18z"/>
	<path d="M46.43,259.31c-3.15-2.28-4.87-4.75-3.46-8.96c1.6-0.35,3.46-0.75,5.21-1.13C52.87,254.7,52.52,256.72,46.43,259.31z"/>
	<path d="M167.61,122.25c-1.88,0.04-3.86-2.09-4-4.3c-0.18-2.89,1.97-5.43,4.63-5.48c2.36-0.04,3.87,2.04,3.89,5.36
		C172.14,120.06,169.95,122.2,167.61,122.25z"/>
	<path d="M50.23,231.91c5.18-3.31,7.23-2.93,9.15,1.24c1.03,2.23,0.23,3.89-1.65,5.09c-1.76,1.12-3.6,1.02-4.77-0.81
		C51.85,235.69,51.11,233.71,50.23,231.91z"/>
	<path d="M194.96,55.6c-0.09-2.88,0.62-4.61,2.83-5.31c2.16-0.69,2.69,1.09,3.47,2.46c0.08,0.15,0.25,0.25,0.38,0.38
		c1.75,1.79,1.88,3.96,0.57,5.81c-0.61,0.86-2.56,1.57-3.53,1.24C196.39,59.4,194.71,57.7,194.96,55.6z"/>
	<path d="M136.43,100.43c-6.33,0.69-8.58-2.11-6.47-8.03C136.83,92,138.35,93.88,136.43,100.43z"/>
	<path d="M114.19,101.09c2.77,0.18,5.86-0.84,6.69,2.92c0.31,1.4,0.28,3.97-0.39,4.27c-1.57,0.72-3.87,1-5.42,0.36
		C112.87,107.75,112.74,105.21,114.19,101.09z"/>
	<path d="M244.17,84.72c-1.95,0.68-3.2,3.59-5.96,1.69c-2.59-1.78-1.6-4.41-2.29-6.65C242,78.2,243.08,78.9,244.17,84.72z"/>
	<path d="M36.93,252.9c-0.1,2.99-2.67,4.81-5.33,4.89c-2.07,0.06-3.08-1.17-2.95-3.58c0.15-2.75,2.72-5.82,4.57-4.97
		C34.93,250.04,36.09,252.02,36.93,252.9z"/>
	<path d="M0,262.79c0.63-3.95,1.23-7.78,1.92-12.15c2.4,1.12,3.59,2.37,3.63,4.52c0.01,0.51-0.38,1.06-0.26,1.52
		C6.62,261.96,6.36,262.31,0,262.79z"/>
	<path d="M197.57,83.44c-1.34-1.25-2.87-2.03-3.28-3.2c-0.53-1.51-0.83-3.96,0.01-4.85c0.86-0.91,3.38-0.94,4.85-0.43
		c1.92,0.67,2.75,3.98,1.64,5.59C200.04,81.65,198.77,82.4,197.57,83.44z"/>
	<path d="M10.13,266.93c0.19,3.33-1.18,4.34-3.18,4.65c-2.09,0.33-3.47-0.93-3.54-3.06c-0.07-1.95,1.67-4.31,3.51-3.97
		C8.31,264.82,9.44,266.39,10.13,266.93z"/>
	<path d="M23.35,237.73c-0.95-0.03-2.38-2.16-2.15-4.45c0.17-1.69,0.82-3.2,2.82-3.35c1.92-0.15,3.26,1.69,3.07,4.17
		C26.95,235.99,26.49,237.7,23.35,237.73z"/>
	<path d="M255.7,56.99c2.26,1.43,5.57,1.82,4.45,5.81c-1.88,1.24-3.71,1.28-5.07-0.76C253.93,60.32,253.25,58.46,255.7,56.99z"/>
	<path d="M85.91,215.7c-2.51-0.48-3.72-1.97-2.62-3.88c0.76-1.32,2.61-2.3,4.17-2.78c1.34-0.41,2.35,1.67,1.44,3.16
		C88.08,213.53,86.86,214.62,85.91,215.7z"/>
	<path d="M388.61,11.65c-0.25-2.27-0.5-4.55-0.74-6.83c2.11-0.67,3.52-0.53,4.31,1.38C393.39,9.16,390.69,10.15,388.61,11.65z"/>
</g>
</svg>
